<?xml version="1.0" encoding="UTF-8"?>
<!DOCTYPE svg PUBLIC "-//W3C//DTD SVG 1.1//EN" "http://www.w3.org/Graphics/SVG/1.1/DTD/svg11.dtd">
<!-- Creator: CorelDRAW X6 -->
<svg xmlns="http://www.w3.org/2000/svg" xml:space="preserve" width="210mm" height="297mm" version="1.1" style="shape-rendering:geometricPrecision; text-rendering:geometricPrecision; image-rendering:optimizeQuality; fill-rule:evenodd; clip-rule:evenodd"
viewBox="0 0 21000 29700"
 xmlns:xlink="http://www.w3.org/1999/xlink">
 <defs>
  <style type="text/css">
   <![CDATA[
    .fil0 {fill:#E4B461}
   ]]>
  </style>
 </defs>
 <g id="Слой_x0020_1">
  <metadata id="CorelCorpID_0Corel-Layer"/>
  <g id="_262424784">
   <path class="fil0" d="M6239 20098c-514,-514 -4992,-5076 -5164,-5251 173,-175 4651,-4738 5164,-5252l0 1c137,-137 407,-89 603,107l49 49c197,197 245,466 108,603l-4492 4492 4492 4491c137,137 89,407 -108,603l-49 49c-196,197 -466,245 -603,108l0 0z"/>
   <path class="fil0" d="M3697 14847c871,877 5217,5259 5217,5251 201,200 499,-2 652,-157 197,-196 245,-466 108,-603l-3924 -3898 13412 10 0 0c388,0 703,-251 703,-559l0 -60c0,-309 -315,-559 -703,-559l-13414 0 3926 -3917c201,-200 -3,-497 -156,-652 -197,-196 -467,-244 -604,-107 0,-1 -4332,4340 -5217,5251z"/>
  </g>
 </g>
</svg>
