<?xml version="1.0" encoding="UTF-8"?>
<!DOCTYPE svg PUBLIC "-//W3C//DTD SVG 1.1//EN" "http://www.w3.org/Graphics/SVG/1.1/DTD/svg11.dtd">
<!-- Creator: CorelDRAW X6 -->
<svg xmlns="http://www.w3.org/2000/svg" xml:space="preserve" width="210mm" height="297mm" version="1.1" style="shape-rendering:geometricPrecision; text-rendering:geometricPrecision; image-rendering:optimizeQuality; fill-rule:evenodd; clip-rule:evenodd"
viewBox="0 0 21000 29700"
 xmlns:xlink="http://www.w3.org/1999/xlink">
 <defs>
  <style type="text/css">
   <![CDATA[
    .fil0 {fill:#E4B461}
   ]]>
  </style>
 </defs>
 <g id="Слой_x0020_1">
  <metadata id="CorelCorpID_0Corel-Layer"/>
  <path class="fil0" d="M2671 14847c871,877 5217,5259 5217,5251 200,200 499,-2 652,-157 196,-196 245,-466 108,-603l-3924 -3898 13411 10 0 0c388,0 703,-251 703,-559l0 -60c0,-309 -315,-559 -703,-559l-13413 0 3926 -3917c200,-200 -3,-497 -157,-652 -196,-196 -466,-244 -603,-107 0,-1 -4332,4340 -5217,5251z"/>
 </g>
</svg>
