<?xml version="1.0" encoding="UTF-8"?>
<!DOCTYPE svg PUBLIC "-//W3C//DTD SVG 1.1//EN" "http://www.w3.org/Graphics/SVG/1.1/DTD/svg11.dtd">
<!-- Creator: CorelDRAW X6 -->
<svg xmlns="http://www.w3.org/2000/svg" xml:space="preserve" width="42.5872mm" height="35.7292mm" version="1.1" style="shape-rendering:geometricPrecision; text-rendering:geometricPrecision; image-rendering:optimizeQuality; fill-rule:evenodd; clip-rule:evenodd"
viewBox="0 0 4259 3573"
 xmlns:xlink="http://www.w3.org/1999/xlink">
 <defs>
  <style type="text/css">
   <![CDATA[
    .fil0 {fill:#c5c5c5}
   ]]>
  </style>
 </defs>
 <g id="Слой_x0020_1">
  <metadata id="CorelCorpID_0Corel-Layer"/>
  <path class="fil0" d="M4252 60c-14,-36 -50,-60 -89,-60l-4068 0c-39,0 -74,24 -89,60 -14,36 -6,77 22,104l1621 1600 0 1713c0,34 18,66 48,83 15,9 31,13 48,13 16,0 33,-4 48,-12l769 -439c30,-17 48,-49 48,-83l0 -1275 1621 -1600c28,-27 36,-68 21,-104z"/>
 </g>
</svg>
