<?xml version="1.0" encoding="UTF-8"?>
<!DOCTYPE svg PUBLIC "-//W3C//DTD SVG 1.1//EN" "http://www.w3.org/Graphics/SVG/1.1/DTD/svg11.dtd">
<!-- Creator: CorelDRAW X6 -->
<svg xmlns="http://www.w3.org/2000/svg" xml:space="preserve" width="28.6172mm" height="28.6172mm" version="1.1" style="shape-rendering:geometricPrecision; text-rendering:geometricPrecision; image-rendering:optimizeQuality; fill-rule:evenodd; clip-rule:evenodd"
viewBox="0 0 2862 2862"
 xmlns:xlink="http://www.w3.org/1999/xlink">
 <defs>
  <style type="text/css">
   <![CDATA[
    .fil0 {fill:#c5c5c5}
   ]]>
  </style>
 </defs>
 <g id="Слой_x0020_1">
  <metadata id="CorelCorpID_0Corel-Layer"/>
  <path class="fil0" d="M2741 2l-953 0c-119,0 -119,0 -119,119l0 238c0,119 0,119 119,119l953 0c119,0 119,0 119,-119l0 -238c0,-119 0,-119 -119,-119zm-238 714l-715 0c-119,0 -119,0 -119,119l0 239c0,119 0,119 119,119l715 0c119,0 119,0 119,-119l0 -239c0,-119 0,-119 -119,-119zm-238 715l-477 0c-119,0 -119,0 -119,119l0 238c0,119 0,119 119,119l477 0c119,0 119,0 119,-119l0 -238c0,-119 0,-119 -119,-119zm-239 714l-238 0c-119,0 -119,0 -119,120l0 238c0,119 0,119 119,119l238 0c119,0 119,0 119,-119l0 -238c0,-120 0,-120 -119,-120zm-1191 -2143l-238 0c-119,0 -119,0 -119,119l0 1786 -476 0 714 953 715 -953 -477 0 0 -1786c0,-119 0,-119 -119,-119z"/>
 </g>
</svg>
