<svg width="50" height="12" viewBox="0 0 50 12" fill="none" xmlns="http://www.w3.org/2000/svg">
<path fill-rule="evenodd" clip-rule="evenodd" d="M44.497 9.68934C45.2423 9.68934 45.8386 8.7204 45.9131 7.60239C45.9877 6.48437 45.7641 5.51543 45.0187 5.51543C44.2734 5.51543 43.7516 6.48437 43.6026 7.60239C43.4535 8.7204 43.7516 9.68934 44.497 9.68934ZM48.8945 8.34773C48.5964 10.8074 49.7144 10.2856 49.4908 10.7328C49.2672 11.2546 48.3728 11.8508 47.4784 11.8508C46.3603 11.8508 45.615 11.18 45.5405 10.062C44.8697 11.1055 43.9007 11.8508 42.8572 11.8508C40.8448 11.8508 40.0249 9.46574 40.3231 7.45332C40.6212 5.29183 41.9628 3.42847 43.9752 3.42847C45.0933 3.42847 45.7641 4.02475 46.1367 4.91916C46.2113 4.24835 46.2858 3.87568 46.2858 3.87568C46.2858 3.80114 46.3603 3.80114 46.3603 3.80114H49.4908C49.4908 3.80114 49.5653 3.80114 49.5653 3.87568C49.6398 3.72661 49.0436 7.30425 48.8945 8.34773ZM36.6709 8.42226C36.7454 7.60239 36.4473 7.00611 35.702 6.93158C35.3293 6.85704 34.8075 7.00611 34.8075 7.00611C34.6585 7.67692 34.3603 10.1365 35.4784 10.1365C36.2982 10.1365 36.6709 8.86947 36.6709 8.42226ZM36.7454 2.01232C36.0746 2.01232 35.6274 3.50301 35.4784 4.09928C35.4784 4.09928 37.0436 3.42847 37.1926 2.45953C37.1181 2.23593 37.1181 2.01232 36.7454 2.01232ZM35.0312 5.58996C36.82 4.99369 39.3541 5.4409 39.5032 7.67692C39.7268 10.2111 37.7144 11.9254 35.2547 11.9254C32.8697 11.9254 31.6026 10.1365 31.6026 7.97506C31.6026 4.54648 33.615 0.0744353 37.3417 -9.88755e-05C40.5467 -0.074633 41.5902 4.62102 35.1057 5.29183L35.0312 5.58996ZM30.8572 3.87568C30.7827 4.24835 29.8883 11.5527 29.8883 11.5527C29.8883 11.6272 29.8138 11.6272 29.8138 11.6272H26.8324C26.8324 11.6272 26.7579 11.6272 26.7579 11.5527C26.7579 11.5527 27.2796 7.52785 27.5777 5.21729H26.3107C26.2361 6.63344 26.0871 8.04959 25.7144 9.24214C25.2672 11.1055 24.3728 11.9254 23.1057 11.9254C21.615 11.9254 21.2423 10.5092 21.3169 10.2111C21.3169 9.91294 22.2858 9.83841 23.2548 7.60239C23.702 6.40984 24.0001 3.87568 24.0001 3.87568C24.0001 3.80114 24.0746 3.80114 24.0746 3.80114C26.1616 3.35394 28.3976 3.2794 30.8572 3.87568C30.8572 3.80114 30.8572 3.80114 30.8572 3.87568ZM15.7268 9.68934C16.4721 9.68934 17.0684 8.7204 17.143 7.60239C17.292 6.40984 16.9939 5.51543 16.2485 5.51543C15.5032 5.51543 14.9815 6.48437 14.8324 7.60239C14.6088 8.7204 14.9069 9.68934 15.7268 9.68934ZM20.1243 8.34773C19.8262 10.8074 20.9442 10.2856 20.7206 10.7328C20.497 11.2546 19.6026 11.8508 18.7082 11.8508C17.5902 11.8508 16.8448 11.18 16.7703 10.062C16.0995 11.1055 15.1305 11.8508 14.0871 11.8508C12.0746 11.8508 11.2548 9.46574 11.5529 7.45332C11.851 5.29183 13.1926 3.42847 15.2051 3.42847C16.3231 3.42847 16.9939 4.02475 17.3666 4.91916C17.4411 4.24835 17.5156 3.87568 17.5156 3.87568C17.5156 3.80114 17.5902 3.80114 17.5902 3.80114H20.7206C20.7206 3.80114 20.7951 3.80114 20.7951 3.87568C20.7951 3.72661 20.2734 7.30425 20.1243 8.34773ZM10.8821 11.5527C10.8821 11.5527 10.9566 11.6272 10.8075 11.6272H6.5591C6.48457 11.6272 6.48457 11.5527 6.48457 11.5527L4.77028 7.45332C3.2796 8.4968 4.09947 10.2111 4.39761 10.5092C4.54668 10.7328 3.7268 11.9999 2.31065 11.9999C0.96904 11.9999 -0.0744386 10.8819 9.55348e-05 9.54027C0.0746297 7.90052 1.86345 6.3353 4.09947 5.6645L1.56531 0.596174C1.56531 0.596174 1.56531 0.52164 1.63985 0.52164H5.59016C5.66469 0.52164 5.66469 0.596174 5.66469 0.596174L7.30444 4.69555C8.94419 3.72661 7.97525 1.63965 7.67711 1.26698C7.60258 1.19245 7.97525 0.223504 9.46593 0.0744353C11.0311 -0.074633 12.0001 1.04338 12.0001 2.38499C12.0001 4.02475 10.3603 5.6645 8.12432 6.3353L10.8821 11.5527Z" fill="#BEBEBE"/>
</svg>
