<svg width="33" height="25" viewBox="0 0 33 25" fill="none" xmlns="http://www.w3.org/2000/svg">
<path d="M31.1713 16.1209V15.7431H31.2972V15.6801H30.9824V15.7431H31.1083V16.0579H31.1713V16.1209ZM31.864 16.1209V15.7431H31.738L31.6121 15.995L31.4861 15.6801H31.3602V16.0579H31.4861V15.7431L31.6121 15.995H31.6751L31.801 15.7431V16.0579H31.864V16.1209ZM9.69773 24.8741V23.2368C9.69773 22.6071 9.3199 22.1662 8.69018 22.1662C8.37532 22.1662 7.99748 22.2922 7.74559 22.6071C7.55668 22.2922 7.30479 22.1662 6.86398 22.1662C6.61209 22.1662 6.29723 22.2292 6.10831 22.5441V22.2292H5.54156V24.8741H6.10831V23.4257C6.10831 22.9849 6.3602 22.733 6.73804 22.733C7.11587 22.733 7.30479 22.9849 7.30479 23.4257V24.8741H7.87154V23.4257C7.87154 22.9849 8.12343 22.733 8.50126 22.733C8.87909 22.733 9.06801 22.9849 9.06801 23.4257V24.8741H9.69773ZM12.9723 23.5516V22.2292H12.4055V22.5441C12.2166 22.2922 11.9647 22.1662 11.5869 22.1662C10.8312 22.1662 10.2645 22.733 10.2645 23.5516C10.2645 24.3703 10.8312 24.937 11.5869 24.937C11.9647 24.937 12.2166 24.8111 12.4055 24.5592V24.8741H12.9723V23.5516ZM10.8312 23.5516C10.8312 23.1108 11.1461 22.733 11.6499 22.733C12.1537 22.733 12.4685 23.1108 12.4685 23.5516C12.4685 24.0554 12.1537 24.3703 11.6499 24.3703C11.1461 24.3703 10.8312 23.9924 10.8312 23.5516ZM25.1889 22.1662C25.3778 22.1662 25.5668 22.2292 25.7557 22.2922C25.9446 22.3552 26.0705 22.4811 26.1965 22.6071C26.3224 22.733 26.4484 22.8589 26.5113 23.0479C26.5743 23.2368 26.6373 23.4257 26.6373 23.6146C26.6373 23.8035 26.5743 23.9924 26.5113 24.1814C26.4484 24.3703 26.3224 24.4962 26.1965 24.6222C26.0705 24.7481 25.9446 24.8741 25.7557 24.937C25.5668 25 25.3778 25.063 25.1889 25.063C25 25.063 24.8111 25 24.6222 24.937C24.4333 24.8741 24.3073 24.7481 24.1814 24.6222C24.0554 24.4962 23.9295 24.3703 23.8665 24.1814C23.8035 23.9924 23.7406 23.8035 23.7406 23.6146C23.7406 23.4257 23.8035 23.2368 23.8665 23.0479C23.9295 22.8589 24.0554 22.733 24.1814 22.6071C24.3073 22.4811 24.4333 22.3552 24.6222 22.2922C24.8111 22.1662 25 22.1662 25.1889 22.1662ZM25.1889 22.733C25.063 22.733 24.937 22.733 24.8741 22.796C24.7481 22.8589 24.6851 22.9219 24.6222 22.9849C24.5592 23.0479 24.4962 23.1738 24.4333 23.2368C24.3703 23.3627 24.3703 23.4257 24.3703 23.5516C24.3703 23.6776 24.3703 23.8035 24.4333 23.8665C24.4962 23.9924 24.5592 24.0554 24.6222 24.1184C24.6851 24.1814 24.8111 24.2443 24.8741 24.3073C25 24.3703 25.063 24.3703 25.1889 24.3703C25.3149 24.3703 25.4408 24.3703 25.5038 24.3073C25.6297 24.2443 25.6927 24.1814 25.7557 24.1184C25.8186 24.0554 25.8816 23.9295 25.9446 23.8665C26.0076 23.7406 26.0076 23.6776 26.0076 23.5516C26.0076 23.4257 26.0076 23.2997 25.9446 23.2368C25.8816 23.1108 25.8186 23.0479 25.7557 22.9849C25.6927 22.9219 25.5668 22.8589 25.5038 22.796C25.4408 22.733 25.3149 22.733 25.1889 22.733ZM16.0579 23.5516C16.0579 22.733 15.5542 22.1662 14.7985 22.1662C14.0428 22.1662 13.4761 22.733 13.4761 23.5516C13.4761 24.3703 14.0428 24.937 14.7985 24.937C15.1763 24.937 15.5542 24.8111 15.869 24.5592L15.6171 24.1184C15.3652 24.3073 15.1134 24.3703 14.8615 24.3703C14.4836 24.3703 14.1688 24.1814 14.0428 23.7406H15.995C16.0579 23.6776 16.0579 23.6146 16.0579 23.5516ZM14.1058 23.2997C14.1688 22.9219 14.4207 22.67 14.7985 22.67C15.1763 22.67 15.4282 22.9219 15.4912 23.2997H14.1058ZM18.5139 22.9219C18.3249 22.796 18.0101 22.67 17.6322 22.67C17.3174 22.67 17.1285 22.796 17.1285 22.9849C17.1285 23.1738 17.3174 23.2368 17.5693 23.2368L17.8212 23.2997C18.3879 23.3627 18.7657 23.6146 18.7657 24.1184C18.7657 24.6222 18.3249 25 17.5693 25C17.1285 25 16.7506 24.8741 16.4358 24.6851L16.6877 24.2443C16.8766 24.3703 17.1914 24.4962 17.5693 24.4962C17.9471 24.4962 18.199 24.3703 18.199 24.1814C18.199 24.0554 18.073 23.9295 17.7582 23.9295L17.5063 23.8665C16.9395 23.8035 16.6247 23.4887 16.6247 23.1108C16.6247 22.6071 17.0655 22.2922 17.6952 22.2922C18.136 22.2922 18.5139 22.3552 18.7657 22.5441L18.5139 22.9219ZM21.2217 22.733H20.2771V23.9295C20.2771 24.1814 20.3401 24.3703 20.6549 24.3703C20.7809 24.3703 20.9698 24.3073 21.1587 24.2443L21.3476 24.7481C21.1587 24.8741 20.9068 24.937 20.6549 24.937C19.9622 24.937 19.7103 24.5592 19.7103 23.9924V22.796H19.2066V22.2922H19.7103V21.4736H20.2771V22.2922H21.2217V22.733ZM23.2368 22.1662C23.3627 22.1662 23.4887 22.1662 23.6146 22.2292L23.4257 22.796C23.2997 22.733 23.1738 22.733 23.0479 22.733C22.67 22.733 22.4811 22.9849 22.4811 23.4257V24.8741H21.9144V22.2292H22.4811V22.5441C22.67 22.2922 22.8589 22.1662 23.2368 22.1662ZM27.204 24.4962C27.267 24.4962 27.267 24.4962 27.33 24.4962C27.393 24.4962 27.3929 24.5592 27.3929 24.5592L27.4559 24.6222C27.4559 24.6851 27.4559 24.6851 27.4559 24.7481C27.4559 24.8111 27.4559 24.8111 27.4559 24.8741C27.4559 24.937 27.3929 24.937 27.3929 24.937L27.33 25C27.267 25 27.267 25 27.204 25C27.1411 25 27.1411 25 27.0781 25C27.0151 25 27.0151 24.937 27.0151 24.937L26.9521 24.8741C26.9521 24.8111 26.9521 24.8111 26.9521 24.7481C26.9521 24.6851 26.9521 24.6851 26.9521 24.6222C26.9521 24.5592 27.0151 24.5592 27.0151 24.5592L27.0781 24.4962C27.1411 24.4962 27.1411 24.4962 27.204 24.4962ZM27.204 24.937H27.267C27.267 24.937 27.33 24.937 27.33 24.8741L27.3929 24.8111V24.7481V24.6851C27.3929 24.6851 27.393 24.6222 27.33 24.6222L27.267 24.5592H27.204H27.1411C27.1411 24.5592 27.0781 24.5592 27.0781 24.6222L27.0151 24.6851V24.7481V24.8111C27.0151 24.8111 27.0151 24.8741 27.0781 24.8741L27.1411 24.937C27.1411 24.937 27.1411 24.937 27.204 24.937ZM27.204 24.6222H27.267V24.6851V24.7481H27.204L27.267 24.8111H27.204L27.1411 24.7481V24.8111H27.0781V24.5592H27.204V24.6222ZM27.1411 24.6851V24.7481H27.204C27.204 24.7481 27.204 24.7481 27.267 24.7481C27.204 24.6851 27.204 24.6851 27.1411 24.6851ZM15.1763 18.0101C15.2393 18.073 15.3652 18.136 15.4282 18.199C13.8539 19.2695 11.9647 19.8363 9.94962 19.8363C4.47103 19.8992 0 15.4282 0 9.94962C0 4.47103 4.47103 0 9.94962 0C11.9647 0 13.8539 0.629723 15.4282 1.63728C15.3652 1.70025 15.2393 1.76322 15.1763 1.8262C12.8463 3.84131 11.5239 6.80101 11.5239 9.88665C11.5239 13.0353 12.8463 15.995 15.1763 18.0101ZM22.2292 0C20.1511 0 18.262 0.629723 16.6877 1.63728C16.7506 1.70025 16.8766 1.76322 16.9395 1.8262C19.2695 3.84131 20.5919 6.80101 20.5919 9.88665C20.5919 12.9723 19.2695 15.932 16.9395 17.9471C16.8766 18.0101 16.7506 18.073 16.6877 18.136C18.262 19.2065 20.1511 19.7733 22.1662 19.7733C27.6448 19.7733 32.1159 15.3023 32.1159 9.82368C32.1788 4.47103 27.7078 0 22.2292 0ZM16.0579 2.14106C15.932 2.267 15.806 2.32997 15.6801 2.45592C13.602 4.28212 12.2796 6.98992 12.2796 9.94962C12.2796 12.9723 13.602 15.6171 15.6801 17.4433C15.806 17.5693 15.932 17.6322 16.0579 17.7582C16.1839 17.6322 16.3098 17.5693 16.4358 17.4433C18.5139 15.6171 19.8363 12.9093 19.8363 9.94962C19.8363 6.92695 18.5139 4.28212 16.4358 2.45592C16.3098 2.32997 16.1839 2.20403 16.0579 2.14106Z" fill="#BEBEBE"/>
</svg>
