<svg width="32" height="25" viewBox="0 0 32 25" fill="none" xmlns="http://www.w3.org/2000/svg">
<path d="M5.82388 24.8741V23.2368C5.82388 22.6071 5.44814 22.1662 4.82192 22.1662C4.50881 22.1662 4.13307 22.2922 3.88258 22.6071C3.69472 22.2922 3.44423 22.1662 3.00587 22.1662C2.75538 22.1662 2.44227 22.2292 2.2544 22.5441V22.2292H1.62818V24.8741H2.19178V23.4257C2.19178 22.9849 2.44227 22.733 2.818 22.733C3.19374 22.733 3.38161 22.9849 3.38161 23.4257V24.8741H3.94521V23.4257C3.94521 22.9849 4.1957 22.733 4.57143 22.733C4.94716 22.733 5.13503 22.9849 5.13503 23.4257V24.8741H5.82388ZM14.3405 22.2292H13.4012V21.4106H12.8376V22.2292H12.274V22.733H12.8376V23.9295C12.8376 24.5592 13.0881 24.937 13.7769 24.937C14.0274 24.937 14.3405 24.8741 14.4658 24.7481L14.2779 24.2443C14.09 24.3703 13.9022 24.3703 13.7769 24.3703C13.4638 24.3703 13.4012 24.1814 13.4012 23.9295V22.733H14.3405V22.2292ZM19.2251 22.1662C18.9119 22.1662 18.6614 22.2922 18.5362 22.5441V22.2292H17.9726V24.8741H18.5362V23.4257C18.5362 22.9849 18.7241 22.733 19.0998 22.733C19.225 22.733 19.3503 22.733 19.4755 22.796L19.6634 22.2292C19.4755 22.1662 19.3503 22.1662 19.2251 22.1662ZM11.8356 22.4181C11.5851 22.2292 11.2094 22.1662 10.771 22.1662C10.0822 22.1662 9.70646 22.4811 9.70646 22.9849C9.70646 23.4257 10.0196 23.6776 10.5832 23.7406L10.8337 23.8035C11.1468 23.8665 11.272 23.9295 11.272 24.0554C11.272 24.2443 11.0841 24.3703 10.6458 24.3703C10.2701 24.3703 9.95695 24.2443 9.76908 24.1184L9.58121 24.5592C9.89433 24.8111 10.2701 24.8741 10.7084 24.8741C11.4599 24.8741 11.8982 24.4962 11.8982 23.9924C11.8982 23.5516 11.5225 23.2997 10.9589 23.1738L10.7084 23.1108C10.4579 23.0479 10.2701 23.0479 10.2701 22.8589C10.2701 22.67 10.4579 22.5441 10.771 22.5441C11.0842 22.5441 11.4599 22.67 11.5851 22.796L11.8356 22.4181ZM27.1155 22.1662C26.8024 22.1662 26.5519 22.2922 26.4266 22.5441V22.2292H25.863V24.8741H26.4266V23.4257C26.4266 22.9849 26.6145 22.733 26.9902 22.733C27.1155 22.733 27.2407 22.733 27.366 22.796L27.5538 22.2292C27.4286 22.1662 27.2407 22.1662 27.1155 22.1662ZM19.7887 23.5516C19.7887 24.3703 20.3523 24.937 21.1663 24.937C21.5421 24.937 21.8552 24.8741 22.1057 24.6222L21.8552 24.1814C21.6673 24.3073 21.4168 24.4332 21.1663 24.4332C20.728 24.4332 20.3523 24.1184 20.3523 23.6146C20.3523 23.1108 20.6654 22.796 21.1663 22.796C21.4168 22.796 21.6673 22.8589 21.8552 23.0479L22.1057 22.6071C21.7926 22.3552 21.5421 22.2922 21.1663 22.2922C20.3523 22.1662 19.7887 22.733 19.7887 23.5516ZM25.1115 23.5516V22.2292H24.5479V22.5441C24.3601 22.2922 24.1096 22.1662 23.7339 22.1662C22.9824 22.1662 22.4188 22.733 22.4188 23.5516C22.4188 24.3703 22.9824 24.937 23.7339 24.937C24.1096 24.937 24.3601 24.8111 24.5479 24.5592V24.8741H25.1115V23.5516ZM22.9824 23.5516C22.9824 23.1108 23.2955 22.733 23.7965 22.733C24.2975 22.733 24.6106 23.1108 24.6106 23.5516C24.6106 24.0554 24.2975 24.3703 23.7965 24.3703C23.2955 24.3703 22.9824 23.9924 22.9824 23.5516ZM16.0939 22.1662C15.3425 22.1662 14.7789 22.733 14.7789 23.5516C14.7789 24.3703 15.3425 24.937 16.0939 24.937C16.4697 24.937 16.8454 24.8111 17.1585 24.5592L16.908 24.1184C16.6575 24.3073 16.407 24.3703 16.1566 24.3703C15.7808 24.3703 15.4677 24.1814 15.3425 23.7406H17.2838C17.2838 23.6776 17.2838 23.6146 17.2838 23.4887C17.3464 22.733 16.8454 22.1662 16.0939 22.1662ZM16.0939 22.67C16.4697 22.67 16.7202 22.9219 16.7828 23.2997H15.4051C15.4677 22.9219 15.7182 22.67 16.0939 22.67ZM30.4344 23.5516V21.1587H29.8708V22.5441C29.683 22.2922 29.4325 22.1662 29.0568 22.1662C28.3053 22.1662 27.7417 22.733 27.7417 23.5516C27.7417 24.3703 28.3053 24.937 29.0568 24.937C29.4325 24.937 29.683 24.8111 29.8708 24.5592V24.8741H30.4344V23.5516ZM28.3053 23.5516C28.3053 23.1108 28.6184 22.733 29.1194 22.733C29.6204 22.733 29.9335 23.1108 29.9335 23.5516C29.9335 24.0554 29.6204 24.3703 29.1194 24.3703C28.6184 24.3703 28.3053 23.9924 28.3053 23.5516ZM9.01761 23.5516V22.2292H8.45401V22.5441C8.26615 22.2922 8.01566 22.1662 7.63992 22.1662C6.88845 22.1662 6.32485 22.733 6.32485 23.5516C6.32485 24.3703 6.88845 24.937 7.63992 24.937C8.01566 24.937 8.26615 24.8111 8.45401 24.5592V24.8741H9.01761V23.5516ZM6.88845 23.5516C6.88845 23.1108 7.20157 22.733 7.70254 22.733C8.20352 22.733 8.51663 23.1108 8.51663 23.5516C8.51663 24.0554 8.20352 24.3703 7.70254 24.3703C7.20157 24.3703 6.88845 23.9924 6.88845 23.5516ZM31.3738 24.4962C31.4364 24.4962 31.4364 24.4962 31.499 24.4962C31.5616 24.4962 31.5616 24.5592 31.5616 24.5592L31.6243 24.6222C31.6243 24.6851 31.6243 24.6851 31.6243 24.7481C31.6243 24.8111 31.6243 24.8111 31.6243 24.8741C31.6243 24.937 31.5616 24.937 31.5616 24.937L31.499 25C31.4364 25 31.4364 25 31.3738 25C31.3112 25 31.3112 25 31.2485 25C31.1859 25 31.1859 24.937 31.1859 24.937L31.1233 24.8741C31.1233 24.8111 31.1233 24.8111 31.1233 24.7481C31.1233 24.6851 31.1233 24.6851 31.1233 24.6222C31.1233 24.5592 31.1859 24.5592 31.1859 24.5592L31.2485 24.4962C31.3112 24.4962 31.3738 24.4962 31.3738 24.4962ZM31.3738 24.937H31.4364C31.4364 24.937 31.499 24.937 31.499 24.8741L31.5616 24.8111V24.7481V24.6851C31.5616 24.6851 31.5616 24.6222 31.499 24.6222L31.4364 24.5592H31.3738H31.3112C31.3112 24.5592 31.2485 24.5592 31.2485 24.6222L31.1859 24.6851V24.7481V24.8111C31.1859 24.8111 31.1859 24.8741 31.2485 24.8741L31.3112 24.937H31.3738ZM31.3738 24.6222H31.4364V24.6851V24.7481H31.3738L31.4364 24.8111H31.3738L31.3112 24.7481V24.8111V24.5592H31.3738V24.6222ZM31.3112 24.6851V24.7481H31.3738C31.3738 24.7481 31.3738 24.7481 31.4364 24.7481C31.4364 24.6851 31.4364 24.6851 31.3112 24.6851ZM30.998 16.1209V15.7431H31.1233V15.6801H30.8102V15.7431H30.9354V16.0579H30.998V16.1209ZM31.6869 16.1209V15.7431H31.5616L31.4364 15.995L31.3112 15.6801H31.1859V16.0579H31.3112V15.7431L31.4364 15.995H31.499L31.6243 15.7431V16.0579H31.6869V16.1209ZM15.092 18.0101C15.1546 18.073 15.2798 18.136 15.3425 18.199C13.7769 19.2695 11.8982 19.8363 9.89433 19.8363C4.44618 19.8992 0 15.4282 0 9.94962C0 4.47103 4.44618 0 9.89433 0C11.8982 0 13.7769 0.629723 15.3425 1.63728C15.2798 1.70025 15.1546 1.76322 15.092 1.8262C12.775 3.84131 11.4599 6.80101 11.4599 9.88665C11.4599 13.0353 12.775 15.995 15.092 18.0101ZM22.1057 0C20.0391 0 18.1605 0.629723 16.5949 1.63728C16.6575 1.70025 16.7828 1.76322 16.8454 1.8262C19.1624 3.84131 20.4775 6.80101 20.4775 9.88665C20.4775 12.9723 19.1624 15.932 16.8454 17.9471C16.7828 18.0101 16.6575 18.073 16.5949 18.136C18.1605 19.2065 20.0391 19.7733 22.0431 19.7733C27.4912 19.7733 31.9374 15.3023 31.9374 9.82368C32 4.47103 27.5538 0 22.1057 0ZM15.9687 2.14106C15.8434 2.267 15.7182 2.32997 15.593 2.45592C13.5264 4.28212 12.2114 6.98992 12.2114 9.94962C12.2114 12.9723 13.5264 15.6171 15.593 17.4433C15.7182 17.5693 15.8434 17.6322 15.9687 17.7582C16.0939 17.6322 16.2192 17.5693 16.3444 17.4433C18.411 15.6171 19.726 12.9093 19.726 9.94962C19.726 6.92695 18.411 4.28212 16.3444 2.45592C16.2192 2.32997 16.0939 2.20403 15.9687 2.14106Z" fill="#BEBEBE"/>
</svg>
