<svg width="39" height="11" viewBox="0 0 39 11" fill="none" xmlns="http://www.w3.org/2000/svg">
<path d="M10.462 0C10.462 0 8.96739 0 8.54891 1.43478C8.19022 2.75 7.11413 6.39674 7.11413 6.5163H6.81522C6.81522 6.5163 5.73913 2.75 5.38043 1.43478C4.96196 0 3.46739 0 3.46739 0H0V11H3.46739V4.4837H3.58696H3.70652L5.73913 11H8.13043L10.163 4.4837H10.462V11H13.9293V0H10.462Z" fill="#BEBEBE"/>
<path d="M23.076 0C23.076 0 22.0597 0.119565 21.5814 1.13587L19.1303 6.5163H18.8314V0H15.364V11H18.6521C18.6521 11 19.7281 10.8804 20.2064 9.86413L22.5977 4.4837H22.8966V11H26.364V0H23.076Z" fill="#BEBEBE"/>
<path d="M27.8586 4.96188V10.9401H31.326V7.41297H35.0923C36.7065 7.41297 38.0815 6.39666 38.6195 4.9021H27.8586V4.96188Z" fill="#BEBEBE"/>
<path d="M35.0923 0H27.3804C27.7391 2.09239 29.3532 3.7663 31.3858 4.30435C31.8641 4.42391 32.3423 4.48369 32.8206 4.48369H38.7391C38.7989 4.24456 38.7989 4.00543 38.7989 3.70652C38.7989 1.67391 37.1249 0 35.0923 0Z" fill="#BEBEBE"/>
</svg>
