<?xml version="1.0" encoding="utf-8"?>
<!-- Generator: Adobe Illustrator 19.0.1, SVG Export Plug-In . SVG Version: 6.00 Build 0)  -->
<svg version="1.1" id="Слой_1" xmlns="http://www.w3.org/2000/svg" xmlns:xlink="http://www.w3.org/1999/xlink" x="0px" y="0px"
	 viewBox="0 0 18 16" style="enable-background:new 0 0 18 16;" xml:space="preserve">
<style type="text/css">
	.st0{fill:#010101;}
</style>
<g id="XMLID_496_">
	<path id="XMLID_497_" class="st0" d="M0.3,7.7l4.1,1.6l1.6,5.3c0.1,0.3,0.5,0.5,0.8,0.2l2.3-1.9c0.2-0.2,0.6-0.2,0.8,0l4.2,3.1
		c0.3,0.2,0.7,0.1,0.8-0.3l3.1-15c0.1-0.4-0.3-0.7-0.7-0.6l-17,6.7C-0.1,6.9-0.1,7.5,0.3,7.7z M5.8,8.4l8.1-5.1
		c0.1-0.1,0.3,0.1,0.2,0.2L7.4,9.9C7.2,10.1,7,10.4,7,10.7l-0.2,1.7c0,0.2-0.3,0.3-0.4,0L5.5,9.3C5.4,9,5.5,8.6,5.8,8.4z"/>
</g>
</svg>
