<svg width="38" height="12" viewBox="0 0 38 12" fill="none" xmlns="http://www.w3.org/2000/svg">
<path d="M14.087 0.195652L9.19565 11.8043H6.06522L3.65217 2.54348C3.52174 1.95652 3.3913 1.76087 2.93478 1.56522C2.21739 1.17391 1.04348 0.782609 0 0.521739L0.0652174 0.195652H5.15217C5.80435 0.195652 6.3913 0.652174 6.52174 1.36957L7.82609 8.08696L10.9565 0.195652H14.087ZM26.5435 8.02174C26.5435 4.95652 22.3043 4.76087 22.3696 3.45652C22.3696 3.06522 22.7609 2.6087 23.6739 2.47826C24.1304 2.41304 25.3043 2.34783 26.6087 3L27.1304 0.521739C26.3478 0.26087 25.4348 0 24.2609 0C21.3261 0 19.2391 1.56522 19.1739 3.84783C19.1739 5.54348 20.6739 6.45652 21.7826 6.97826C22.9565 7.56522 23.3478 7.8913 23.3478 8.41304C23.3478 9.19565 22.4348 9.52174 21.5217 9.52174C20.0217 9.52174 19.1087 9.13043 18.4565 8.80435L17.9348 11.3478C18.6522 11.6739 19.9565 11.9348 21.2609 11.9348C24.4565 12 26.4783 10.4348 26.5435 8.02174ZM34.3696 11.8043H37.1739L34.6957 0.195652H32.1522C31.5652 0.195652 31.1087 0.521739 30.8478 1.04348L26.3478 11.8043H29.4783L30.1304 10.0435H33.9783L34.3696 11.8043ZM30.9783 7.69565L32.5435 3.32609L33.4565 7.69565H30.9783ZM18.3913 0.195652L15.913 11.8043H12.913L15.3913 0.195652H18.3913Z" fill="#BEBEBE"/>
</svg>
