<svg width="17" height="10" viewBox="0 0 17 10" fill="none" xmlns="http://www.w3.org/2000/svg">
<path d="M14.108 5.73485C13.8324 5.38333 13.9121 5.22933 14.108 4.91798C14.1113 4.91463 16.3791 1.75427 16.6148 0.682959C16.7311 0.291262 16.6148 0.00669568 16.0537 0.00669568H14.1943C13.7195 0.00669568 13.5037 0.254436 13.3875 0.528959C13.3875 0.528959 12.4412 2.81219 11.1031 4.29193C10.6715 4.72046 10.4723 4.85772 10.2365 4.85772C10.1203 4.85772 9.94102 4.72046 9.94102 4.32876V0.676264C9.94102 0.207566 9.8082 0 9.41641 0H6.49453C6.19902 0 6.01973 0.21761 6.01973 0.421828C6.01973 0.867091 6.69043 0.967526 6.76016 2.21962V4.93137C6.76016 5.52394 6.65391 5.63442 6.41484 5.63442C5.78398 5.63442 4.25 3.34114 3.34023 0.716438C3.1543 0.207566 2.975 0 2.49687 0H0.6375C0.10625 0 0 0.24774 0 0.522263C0 1.0077 0.630859 3.43154 2.93848 6.63207C4.47578 8.81486 6.64062 10 8.60957 10C9.7916 10 9.93769 9.73552 9.93769 9.28356C9.93769 7.19786 9.83144 7.00033 10.4225 7.00033C10.698 7.00033 11.1695 7.1376 12.2752 8.19217C13.5369 9.44091 13.7461 10 14.4533 10H16.3127C16.8439 10 17.1096 9.73552 16.9568 9.21995C16.6016 8.12856 14.2143 5.88216 14.108 5.73485Z" fill="white"/>
</svg>
