<?xml version="1.0" encoding="utf-8"?>
<!-- Generator: Adobe Illustrator 19.0.1, SVG Export Plug-In . SVG Version: 6.00 Build 0)  -->
<svg version="1.1" id="Слой_1" xmlns="http://www.w3.org/2000/svg" xmlns:xlink="http://www.w3.org/1999/xlink" x="0px" y="0px"
	 viewBox="0 0 18 18" style="enable-background:new 0 0 18 18;" xml:space="preserve">
<g>
	<path d="M0,18l1.3-4.5C0.4,12.2,0,10.6,0,9c0-5,4-9,9-9s9,4,9,9s-4,9-9,9c-1.5,0-3.1-0.4-4.4-1.1L0,18z M4.9,15.2l0.3,0.2
		c1.2,0.7,2.5,1.1,3.9,1.1c4.1,0,7.5-3.3,7.5-7.5S13.1,1.5,9,1.5S1.5,4.9,1.5,9c0,1.4,0.4,2.8,1.2,4l0.2,0.3l-0.7,2.6L4.9,15.2z"/>
	<path d="M6.5,4.8l-0.6,0c-0.2,0-0.4,0.1-0.5,0.2C5.1,5.2,4.7,5.7,4.5,6.3c-0.2,0.9,0.1,2,0.9,3.2c0.8,1.1,2.4,2.9,5.1,3.7
		c0.9,0.2,1.6,0.1,2.1-0.3c0.4-0.3,0.7-0.7,0.8-1.2l0.1-0.4c0-0.1,0-0.3-0.2-0.3l-2-0.9c-0.1-0.1-0.3,0-0.4,0.1l-0.8,1
		c-0.1,0.1-0.2,0.1-0.2,0.1C9.5,11,7.8,10.3,6.8,8.4c0-0.1,0-0.2,0-0.2l0.7-0.9c0.1-0.1,0.1-0.2,0-0.3L6.7,5
		C6.7,4.9,6.6,4.8,6.5,4.8z"/>
</g>
</svg>
