<?xml version="1.0" encoding="UTF-8"?>
<!DOCTYPE svg PUBLIC "-//W3C//DTD SVG 1.1//EN" "http://www.w3.org/Graphics/SVG/1.1/DTD/svg11.dtd">
<!-- Creator: CorelDRAW X6 -->
<svg xmlns="http://www.w3.org/2000/svg" xml:space="preserve" width="210mm" height="297mm" version="1.1" style="shape-rendering:geometricPrecision; text-rendering:geometricPrecision; image-rendering:optimizeQuality; fill-rule:evenodd; clip-rule:evenodd"
viewBox="0 0 21000 29700"
 xmlns:xlink="http://www.w3.org/1999/xlink">
 <defs>
  <style type="text/css">
   <![CDATA[
    .fil0 {fill:#E4B461}
   ]]>
  </style>
 </defs>
 <g id="Слой_x0020_1">
  <metadata id="CorelCorpID_0Corel-Layer"/>
  <path class="fil0" d="M18838 14852c-870,-877 -5217,-5258 -5217,-5251 -200,-200 -498,2 -652,157 -196,196 -244,466 -107,603l3924 3898 -13412 -9 0 0c-388,0 -703,250 -703,558l0 60c0,309 315,559 703,559l13414 0 -3926 3917c-201,201 3,497 156,652 197,196 467,244 603,108 0,0 4333,-4341 5217,-5252z"/>
 </g>
</svg>
