<svg width="134" height="14" viewBox="0 0 134 14" fill="none" xmlns="http://www.w3.org/2000/svg">
<path d="M0 13.7326V0.229126H3.53353C4.44541 0.229126 5.16731 0.286425 5.69924 0.381923C6.23117 0.496521 6.70611 0.687518 7.14305 0.954914C7.504 1.18411 7.82696 1.4706 8.09292 1.8144C8.35888 2.15819 8.56786 2.54019 8.70084 2.94128C8.83382 3.36147 8.90981 3.80076 8.90981 4.25916C8.90981 4.90855 8.77683 5.50064 8.51086 6.03543C8.2449 6.57022 7.86495 7.02861 7.37102 7.3915C7.08605 7.6016 6.7821 7.7735 6.44014 7.9072C6.11718 8.04089 5.73724 8.11729 5.31929 8.17459C4.90135 8.23189 4.42641 8.27009 3.85649 8.27009H1.32982V13.7135H0V13.7326ZM1.34882 7.06681H3.66651C4.35042 7.06681 4.90135 7.02861 5.30029 6.95221C5.69924 6.87581 6.06019 6.74211 6.38315 6.53202C6.7631 6.30282 7.04806 5.97813 7.23803 5.57703C7.42801 5.17594 7.542 4.73665 7.542 4.25916C7.542 3.68617 7.39001 3.18958 7.10505 2.75028C6.82009 2.31099 6.40215 1.9863 5.87022 1.7571C5.37628 1.547 4.69237 1.45151 3.7805 1.45151H3.51453L3.28656 1.4706H3.07759H1.34882V7.06681Z" fill="black"/>
<path d="M9.21387 13.7326L15.0081 0.229126H16.5089L22.2651 13.7326H20.8213L18.8836 9.18687H12.6334L10.6767 13.7326H9.21387ZM15.844 1.929L15.749 1.5661L15.654 1.929L13.1463 7.98359H18.3327L15.844 1.929Z" fill="black"/>
<path d="M30.4907 0C31.8015 0 33.0174 0.305595 34.1382 0.935884C35.2591 1.56617 36.133 2.40656 36.7789 3.45704C37.4248 4.52662 37.7477 5.6917 37.7477 6.95228C37.7477 8.21286 37.4248 9.37794 36.7789 10.4666C36.152 11.5362 35.2781 12.3766 34.1952 13.0069C33.1124 13.6372 31.9155 13.9428 30.6427 13.9428C29.3699 13.9428 28.192 13.6372 27.1092 13.0069C26.0073 12.3766 25.1524 11.5362 24.5065 10.4666C23.8606 9.39704 23.5566 8.25106 23.5566 6.99048C23.5566 5.749 23.8796 4.60302 24.5065 3.51434C25.1334 2.42566 25.9883 1.56617 27.0522 0.935884C28.116 0.324694 29.2559 0 30.4907 0ZM30.6047 1.29878C29.5978 1.29878 28.648 1.56617 27.7741 2.08186C26.9002 2.59756 26.1973 3.30424 25.6844 4.18283C25.1714 5.06141 24.9055 6.0164 24.9055 7.02868C24.9055 8.04096 25.1714 8.97685 25.6844 9.83633C26.1973 10.6958 26.9002 11.4025 27.7931 11.8991C28.686 12.4148 29.6358 12.6631 30.6617 12.6631C31.4406 12.6631 32.1815 12.5103 32.8654 12.2238C33.5683 11.9373 34.1762 11.5171 34.7081 11.0014C35.2401 10.4666 35.639 9.85543 35.943 9.16784C36.2279 8.48026 36.3799 7.73537 36.3799 6.95228C36.3799 5.94 36.114 5.00412 35.601 4.12553C35.0881 3.24694 34.3662 2.55936 33.4923 2.04367C32.5804 1.54707 31.6306 1.29878 30.6047 1.29878Z" fill="black"/>
<path d="M39.8945 13.7326V0.229126H41.2434V12.4911H46.8096V13.7135H39.8945V13.7326Z" fill="black"/>
<path d="M54.6558 0C55.9666 0 57.1824 0.305595 58.3033 0.935884C59.4241 1.56617 60.298 2.40656 60.9439 3.45704C61.5898 4.52662 61.9128 5.6917 61.9128 6.95228C61.9128 8.21286 61.5898 9.37794 60.9439 10.4666C60.317 11.5362 59.4431 12.3766 58.3603 13.0069C57.2774 13.6372 56.0806 13.9428 54.8077 13.9428C53.5349 13.9428 52.3571 13.6372 51.2742 13.0069C50.1724 12.3766 49.3175 11.5362 48.6716 10.4666C48.0256 9.39704 47.7217 8.25106 47.7217 6.99048C47.7217 5.749 48.0446 4.60302 48.6716 3.51434C49.2985 2.42566 50.1534 1.56617 51.2172 0.935884C52.2811 0.324694 53.4399 0 54.6558 0ZM54.7697 1.29878C53.7629 1.29878 52.813 1.56617 51.9391 2.08186C51.0652 2.59756 50.3623 3.30424 49.8494 4.18283C49.3365 5.06141 49.0705 6.0164 49.0705 7.02868C49.0705 8.04096 49.3365 8.97685 49.8494 9.83633C50.3623 10.6958 51.0652 11.4025 51.9581 11.8991C52.851 12.4148 53.8009 12.6631 54.8267 12.6631C55.6056 12.6631 56.3465 12.5103 57.0304 12.2238C57.7333 11.9373 58.3413 11.5171 58.8732 11.0014C59.4051 10.4666 59.8041 9.85543 60.108 9.16784C60.393 8.48026 60.545 7.73537 60.545 6.95228C60.545 5.94 60.279 5.00412 59.7661 4.12553C59.2531 3.24694 58.5312 2.55936 57.6574 2.04367C56.7645 1.54707 55.7956 1.29878 54.7697 1.29878Z" fill="black"/>
<path d="M81.6702 3.70529H80.1694C79.7895 3.1896 79.4095 2.78851 79.0676 2.54021C78.5736 2.15822 78.0037 1.85263 77.3958 1.64253C76.7879 1.43243 76.161 1.33693 75.515 1.33693C74.5272 1.33693 73.5963 1.60433 72.7224 2.12002C71.8485 2.63571 71.1646 3.3233 70.6517 4.20189C70.1388 5.06137 69.8728 5.99725 69.8728 7.00954C69.8728 8.02182 70.1388 8.9577 70.6517 9.83629C71.1646 10.7149 71.8675 11.4025 72.7414 11.9373C73.6153 12.4529 74.5652 12.7203 75.572 12.7203C76.4459 12.7203 77.2818 12.5102 78.1177 12.0901C78.5736 11.8609 78.9346 11.6317 79.2006 11.3834C79.4855 11.1542 79.8275 10.7722 80.2264 10.2565H81.7082C81.4233 10.7531 81.1763 11.1351 80.9863 11.3834C80.7963 11.6317 80.5304 11.8991 80.2074 12.2046C78.8396 13.4079 77.2628 14 75.515 14C74.2422 14 73.0644 13.6944 72.0005 13.0641C70.9367 12.4529 70.0818 11.5935 69.4738 10.5239C68.8469 9.4543 68.543 8.27012 68.543 7.00954C68.543 5.74896 68.8469 4.58388 69.4738 3.5143C70.1008 2.44471 70.9367 1.60433 72.0005 0.993139C73.0644 0.38195 74.2422 0.076355 75.515 0.076355C76.9209 0.076355 78.1937 0.439249 79.3525 1.18414C80.0554 1.66163 80.6254 2.17732 81.0813 2.75031C81.2713 2.96041 81.4802 3.3042 81.6702 3.70529Z" fill="black"/>
<path d="M90.2388 0C91.5496 0 92.7654 0.305595 93.8863 0.935884C95.0071 1.56617 95.881 2.40656 96.5269 3.45704C97.1729 4.52662 97.4958 5.6917 97.4958 6.95228C97.4958 8.21286 97.1729 9.37794 96.5269 10.4666C95.9 11.5362 95.0261 12.3766 93.9433 13.0069C92.8604 13.6372 91.6636 13.9428 90.3908 13.9428C89.1179 13.9428 87.9401 13.6372 86.8572 13.0069C85.7554 12.3766 84.9005 11.5362 84.2546 10.4666C83.6086 9.39704 83.3047 8.25106 83.3047 6.99048C83.3047 5.749 83.6276 4.60302 84.2546 3.51434C84.8815 2.42566 85.7364 1.56617 86.8002 0.935884C87.8641 0.324694 89.0039 0 90.2388 0ZM90.3528 1.29878C89.3459 1.29878 88.396 1.56617 87.5221 2.08186C86.6482 2.59756 85.9453 3.30424 85.4324 4.18283C84.9195 5.06141 84.6535 6.0164 84.6535 7.02868C84.6535 8.04096 84.9195 8.97685 85.4324 9.83633C85.9453 10.7149 86.6483 11.4025 87.5411 11.8991C88.434 12.3957 89.3839 12.6631 90.4097 12.6631C91.1886 12.6631 91.9295 12.5103 92.6135 12.2238C93.3164 11.9373 93.9243 11.5171 94.4562 11.0014C94.9881 10.4666 95.3871 9.85543 95.691 9.16784C95.976 8.48026 96.128 7.73537 96.128 6.95228C96.128 5.94 95.862 5.00412 95.3491 4.12553C94.8172 3.24694 94.1143 2.55936 93.2404 2.04367C92.3285 1.54707 91.3786 1.29878 90.3528 1.29878Z" fill="black"/>
<path d="M99.9072 13.7326V0.229126H101.731L109.14 11.2687L109.235 11.5552V0.229126H110.603V13.7326H109.254L101.332 1.9481L101.256 1.738V13.7326H99.9072Z" fill="black"/>
<path d="M117.518 13.7518V1.47073H112.825V0.248352H123.521V1.47073H118.847V13.7518H117.518Z" fill="black"/>
<path d="M125.478 13.7326V0.229126H133.399V1.45151H126.826V6.18822H133.191V7.4106H126.826V12.4911H133.399V13.7135H125.478V13.7326Z" fill="black"/>
</svg>
