<svg width="179" height="17" viewBox="0 0 179 17" fill="none" xmlns="http://www.w3.org/2000/svg">
<path d="M21.7452 15.7373V0.262634H25.9106C26.9856 0.262634 27.8366 0.328298 28.4636 0.437737C29.0907 0.569064 29.6505 0.787942 30.1656 1.09437C30.5911 1.35703 30.9718 1.68534 31.2853 2.07932C31.5989 2.4733 31.8452 2.91106 32.002 3.37071C32.1587 3.85224 32.2483 4.35566 32.2483 4.88096C32.2483 5.62515 32.0915 6.30367 31.778 6.91653C31.4645 7.52939 31.0166 8.0547 30.4343 8.47057C30.0984 8.71133 29.7401 8.90833 29.337 9.06154C28.9563 9.21475 28.5084 9.30231 28.0157 9.36797C27.523 9.43363 26.9632 9.47741 26.2913 9.47741H23.3129V15.7154H21.7452V15.7373ZM23.3353 8.09847H26.0674C26.8736 8.09847 27.523 8.0547 27.9933 7.96715C28.4636 7.8796 28.8891 7.72638 29.2698 7.48562C29.7177 7.22296 30.0536 6.85087 30.2776 6.39122C30.5015 5.93158 30.6359 5.42816 30.6359 4.88096C30.6359 4.22433 30.4567 3.65525 30.1208 3.15183C29.7849 2.64841 29.2922 2.27631 28.6652 2.01366C28.0829 1.77289 27.2767 1.66345 26.2018 1.66345H25.8882L25.6195 1.68534H25.3732H23.3353V8.09847Z" fill="black"/>
<path d="M32.6067 15.7373L39.437 0.262634H41.2062L47.9918 15.7373H46.2898L44.0055 10.528H36.6377L34.3311 15.7373H32.6067ZM40.4224 2.21065L40.3104 1.79478L40.1985 2.21065L37.2424 9.14909H43.3561L40.4224 2.21065Z" fill="black"/>
<path d="M57.6887 0C59.2339 0 60.6671 0.350205 61.9884 1.0725C63.3097 1.7948 64.3399 2.75787 65.1013 3.9617C65.8627 5.18742 66.2434 6.52257 66.2434 7.96717C66.2434 9.41177 65.8627 10.7469 65.1013 11.9945C64.3623 13.2202 63.3321 14.1833 62.0556 14.9056C60.7791 15.6279 59.3683 15.9781 57.8678 15.9781C56.3674 15.9781 54.9789 15.6279 53.7024 14.9056C52.4035 14.1833 51.3958 13.2202 50.6344 11.9945C49.873 10.7688 49.5146 9.45554 49.5146 8.01094C49.5146 6.58824 49.8954 5.27497 50.6344 4.02736C51.3734 2.77975 52.3812 1.7948 53.6353 1.0725C54.8893 0.372093 56.233 0 57.6887 0ZM57.823 1.48837C56.6361 1.48837 55.5164 1.7948 54.4862 2.38577C53.4561 2.97674 52.6275 3.78659 52.0228 4.79343C51.4182 5.80027 51.1047 6.89467 51.1047 8.05472C51.1047 9.21478 51.4182 10.2873 52.0228 11.2722C52.6275 12.2572 53.4561 13.067 54.5086 13.6361C55.5612 14.2271 56.6809 14.5116 57.8902 14.5116C58.8084 14.5116 59.6818 14.3365 60.488 14.0082C61.3166 13.6799 62.0332 13.1984 62.6603 12.6074C63.2873 11.9945 63.7576 11.2941 64.1159 10.5062C64.4518 9.71819 64.631 8.86457 64.631 7.96717C64.631 6.80711 64.3175 5.73461 63.7128 4.72777C63.1082 3.72093 62.2572 2.93297 61.227 2.342C60.1521 1.77291 59.0323 1.48837 57.823 1.48837Z" fill="black"/>
<path d="M68.7739 15.7373V0.262634H70.3639V14.3146H76.9256V15.7154H68.7739V15.7373Z" fill="black"/>
<path d="M86.1745 0C87.7197 0 89.153 0.350205 90.4743 1.0725C91.7956 1.7948 92.8257 2.75787 93.5871 3.9617C94.3485 5.18742 94.7292 6.52257 94.7292 7.96717C94.7292 9.41177 94.3485 10.7469 93.5871 11.9945C92.8481 13.2202 91.8179 14.1833 90.5415 14.9056C89.265 15.6279 87.8541 15.9781 86.3537 15.9781C84.8532 15.9781 83.4648 15.6279 82.1883 14.9056C80.8894 14.1833 79.8816 13.2202 79.1202 11.9945C78.3588 10.7688 78.0005 9.45554 78.0005 8.01094C78.0005 6.58824 78.3812 5.27497 79.1202 4.02736C79.8592 2.77975 80.867 1.7948 82.1211 1.0725C83.3752 0.372093 84.7413 0 86.1745 0ZM86.3089 1.48837C85.122 1.48837 84.0022 1.7948 82.9721 2.38577C81.9419 2.97674 81.1133 3.78659 80.5087 4.79343C79.904 5.80027 79.5905 6.89467 79.5905 8.05472C79.5905 9.21478 79.904 10.2873 80.5087 11.2722C81.1133 12.2572 81.9419 13.067 82.9945 13.6361C84.047 14.2271 85.1668 14.5116 86.3761 14.5116C87.2942 14.5116 88.1676 14.3365 88.9738 14.0082C89.8024 13.6799 90.5191 13.1984 91.1461 12.6074C91.7732 11.9945 92.2434 11.2941 92.6018 10.5062C92.9377 9.71819 93.1168 8.86457 93.1168 7.96717C93.1168 6.80711 92.8033 5.73461 92.1987 4.72777C91.594 3.72093 90.743 2.93297 89.7129 2.342C88.6603 1.77291 87.5182 1.48837 86.3089 1.48837Z" fill="black"/>
<path d="M118.02 4.24621H116.25C115.803 3.65524 115.355 3.1956 114.952 2.91105C114.369 2.4733 113.697 2.12309 112.981 1.88233C112.264 1.64156 111.525 1.53212 110.764 1.53212C109.599 1.53212 108.502 1.83855 107.472 2.42952C106.442 3.02049 105.635 3.80846 105.031 4.8153C104.426 5.80025 104.113 6.87275 104.113 8.03281C104.113 9.19286 104.426 10.2654 105.031 11.2722C105.635 12.279 106.464 13.067 107.494 13.6799C108.524 14.2708 109.644 14.5773 110.831 14.5773C111.861 14.5773 112.846 14.3365 113.832 13.855C114.369 13.5923 114.795 13.3297 115.108 13.0451C115.444 12.7825 115.847 12.3447 116.318 11.7537H118.064C117.728 12.3228 117.437 12.7606 117.213 13.0451C116.989 13.3297 116.676 13.6361 116.295 13.9863C114.683 15.3652 112.824 16.0438 110.764 16.0438C109.263 16.0438 107.875 15.6935 106.621 14.9712C105.367 14.2708 104.359 13.2859 103.642 12.0602C102.903 10.8344 102.545 9.4774 102.545 8.03281C102.545 6.58821 102.903 5.25305 103.642 4.02733C104.381 2.80162 105.367 1.83855 106.621 1.13814C107.875 0.43773 109.263 0.0875244 110.764 0.0875244C112.421 0.0875244 113.921 0.503393 115.287 1.35702C116.116 1.90421 116.788 2.49519 117.325 3.15182C117.549 3.39259 117.796 3.78657 118.02 4.24621Z" fill="black"/>
<path d="M128.12 0C129.665 0 131.098 0.350205 132.42 1.0725C133.741 1.7948 134.771 2.75787 135.532 3.9617C136.294 5.18742 136.675 6.52257 136.675 7.96717C136.675 9.41177 136.294 10.7469 135.532 11.9945C134.793 13.2202 133.763 14.1833 132.487 14.9056C131.21 15.6279 129.799 15.9781 128.299 15.9781C126.799 15.9781 125.41 15.6279 124.134 14.9056C122.835 14.1833 121.827 13.2202 121.066 11.9945C120.304 10.7688 119.946 9.45554 119.946 8.01094C119.946 6.58824 120.327 5.27497 121.066 4.02736C121.805 2.77975 122.812 1.7948 124.066 1.0725C125.321 0.372093 126.664 0 128.12 0ZM128.254 1.48837C127.067 1.48837 125.948 1.7948 124.917 2.38577C123.887 2.97674 123.059 3.78659 122.454 4.79343C121.849 5.80027 121.536 6.89467 121.536 8.05472C121.536 9.21478 121.849 10.2873 122.454 11.2722C123.059 12.2791 123.887 13.067 124.94 13.6361C125.992 14.2052 127.112 14.5116 128.321 14.5116C129.24 14.5116 130.113 14.3365 130.919 14.0082C131.748 13.6799 132.464 13.1984 133.091 12.6074C133.718 11.9945 134.189 11.2941 134.547 10.5062C134.883 9.71819 135.062 8.86457 135.062 7.96717C135.062 6.80711 134.749 5.73461 134.144 4.72777C133.517 3.72093 132.688 2.93297 131.658 2.342C130.583 1.77291 129.464 1.48837 128.254 1.48837Z" fill="black"/>
<path d="M139.518 15.7373V0.262634H141.668L150.402 12.9138L150.514 13.2421V0.262634H152.126V15.7373H150.536L141.198 2.23254L141.108 1.99177V15.7373H139.518Z" fill="black"/>
<path d="M160.278 15.7592V1.68537H154.746V0.284546H167.354V1.68537H161.845V15.7592H160.278Z" fill="black"/>
<path d="M169.661 15.7373V0.262634H179V1.66345H171.251V7.09164H178.754V8.49246H171.251V14.3146H179V15.7154H169.661V15.7373Z" fill="black"/>
<path d="M8.68913 8.42682C8.64434 8.42682 8.62195 8.44871 8.62195 8.49248V15.9562C8.62195 15.9781 8.64434 16.0219 8.68913 16.0219H16.3033C16.3481 16.0219 16.3705 16 16.3705 15.9562V8.49248C16.3705 8.47059 16.3481 8.42682 16.3033 8.42682H8.68913Z" fill="black"/>
<path d="M0.0671838 8.42682C0.0223946 8.42682 0 8.44871 0 8.49248V15.9562C0 15.9781 0.0223946 16.0219 0.0671838 16.0219H7.68135C7.72614 16.0219 7.74853 16 7.74853 15.9562V8.49248C7.74853 8.47059 7.72614 8.42682 7.68135 8.42682H0.0671838Z" fill="black"/>
<path d="M8.68913 0C8.64434 0 8.62195 0.0218878 8.62195 0.0656635V7.52941C8.62195 7.57319 8.64434 7.59508 8.68913 7.59508H16.3033C16.3481 7.59508 16.3705 7.57319 16.3705 7.52941V0.0656635C16.3705 0.0218878 16.3481 0 16.3033 0H8.68913Z" fill="black"/>
<path d="M0.0671838 0C0.0223946 0 0 0.0218878 0 0.0656635V7.52941C0 7.57319 0.0223946 7.59508 0.0671838 7.59508H7.68135C7.72614 7.59508 7.74853 7.57319 7.74853 7.52941V0.0656635C7.74853 0.0437757 7.72614 0 7.68135 0H0.0671838Z" fill="black"/>
</svg>
