<?xml version="1.0" encoding="utf-8"?>
<!-- Generator: Adobe Illustrator 19.1.0, SVG Export Plug-In . SVG Version: 6.00 Build 0)  -->
<svg version="1.1" id="Слой_1" xmlns="http://www.w3.org/2000/svg" xmlns:xlink="http://www.w3.org/1999/xlink" x="0px" y="0px"
	 viewBox="0 0 23.4 23.4" style="enable-background:new 0 0 23.4 23.4;" xml:space="preserve">
<g>
	<rect width="7.3" height="7.3"/>
	<rect x="8.1" width="7.3" height="7.3"/>
	<rect x="16.2" width="7.3" height="7.3"/>
	<rect x="16.2" y="16.1" width="7.3" height="7.3"/>
	<rect x="16.2" y="7.9" width="7.3" height="7.3"/>
	<rect x="8.1" y="16.1" width="7.3" height="7.3"/>
	<rect x="8.1" y="7.9" width="7.3" height="7.3"/>
	<rect y="16.1" width="7.3" height="7.3"/>
	<rect y="7.9" width="7.3" height="7.3"/>
</g>
<g>
	<rect x="-270.6" y="3.6" width="7.3" height="7.3"/>
	<rect x="-262.5" y="3.6" width="7.3" height="7.3"/>
	<rect x="-254.4" y="3.6" width="7.3" height="7.3"/>
	<rect x="-254.4" y="19.7" width="7.3" height="7.3"/>
	<rect x="-254.4" y="11.5" width="7.3" height="7.3"/>
	<rect x="-262.5" y="19.7" width="7.3" height="7.3"/>
	<rect x="-262.5" y="11.5" width="7.3" height="7.3"/>
	<rect x="-246.4" y="3.6" width="7.3" height="7.3"/>
	<rect x="-238.3" y="3.6" width="7.3" height="7.3"/>
	<rect x="-238.3" y="19.7" width="7.3" height="7.3"/>
	<rect x="-238.3" y="11.5" width="7.3" height="7.3"/>
	<rect x="-246.4" y="19.7" width="7.3" height="7.3"/>
	<rect x="-246.4" y="11.5" width="7.3" height="7.3"/>
	<rect x="-270.6" y="19.7" width="7.3" height="7.3"/>
	<rect x="-270.6" y="11.5" width="7.3" height="7.3"/>
	<rect x="-254.4" y="35.9" width="7.3" height="7.3"/>
	<rect x="-254.4" y="27.7" width="7.3" height="7.3"/>
	<rect x="-262.5" y="35.9" width="7.3" height="7.3"/>
	<rect x="-262.5" y="27.7" width="7.3" height="7.3"/>
	<rect x="-270.6" y="27.7" width="7.3" height="7.3"/>
	<rect x="-238.3" y="35.9" width="7.3" height="7.3"/>
	<rect x="-238.3" y="27.7" width="7.3" height="7.3"/>
	<rect x="-246.4" y="35.9" width="7.3" height="7.3"/>
	<rect x="-246.4" y="27.7" width="7.3" height="7.3"/>
	<rect x="-270.6" y="35.9" width="7.3" height="7.3"/>
</g>
</svg>
