<?xml version="1.0" encoding="utf-8"?>
<!-- Generator: Adobe Illustrator 19.1.0, SVG Export Plug-In . SVG Version: 6.00 Build 0)  -->
<svg version="1.1" id="Слой_1" xmlns="http://www.w3.org/2000/svg" xmlns:xlink="http://www.w3.org/1999/xlink" x="0px" y="0px"
	 viewBox="0 0 39.6 39.5" style="enable-background:new 0 0 39.6 39.5;" xml:space="preserve">
<g>
	<rect x="84.9" y="-39.8" width="7.3" height="7.3"/>
	<rect x="93" y="-39.8" width="7.3" height="7.3"/>
	<rect x="101.1" y="-39.8" width="7.3" height="7.3"/>
	<rect x="101.1" y="-23.6" width="7.3" height="7.3"/>
	<rect x="101.1" y="-31.8" width="7.3" height="7.3"/>
	<rect x="93" y="-23.6" width="7.3" height="7.3"/>
	<rect x="93" y="-31.8" width="7.3" height="7.3"/>
	<rect x="84.9" y="-23.6" width="7.3" height="7.3"/>
	<rect x="84.9" y="-31.8" width="7.3" height="7.3"/>
</g>
<g>
	<rect y="-0.1" width="7.3" height="7.3"/>
	<rect x="8.1" y="-0.1" width="7.3" height="7.3"/>
	<rect x="16.2" y="-0.1" width="7.3" height="7.3"/>
	<rect x="16.2" y="16.1" width="7.3" height="7.3"/>
	<rect x="16.2" y="7.9" width="7.3" height="7.3"/>
	<rect x="8.1" y="16.1" width="7.3" height="7.3"/>
	<rect x="8.1" y="7.9" width="7.3" height="7.3"/>
	<rect x="24.2" y="-0.1" width="7.3" height="7.3"/>
	<rect x="32.3" y="-0.1" width="7.3" height="7.3"/>
	<rect x="32.3" y="16.1" width="7.3" height="7.3"/>
	<rect x="32.3" y="7.9" width="7.3" height="7.3"/>
	<rect x="24.2" y="16.1" width="7.3" height="7.3"/>
	<rect x="24.2" y="7.9" width="7.3" height="7.3"/>
	<rect y="16.1" width="7.3" height="7.3"/>
	<rect y="7.9" width="7.3" height="7.3"/>
	<rect x="16.2" y="32.3" width="7.3" height="7.3"/>
	<rect x="16.2" y="24.1" width="7.3" height="7.3"/>
	<rect x="8.1" y="32.3" width="7.3" height="7.3"/>
	<rect x="8.1" y="24.1" width="7.3" height="7.3"/>
	<rect y="24.1" width="7.3" height="7.3"/>
	<rect x="32.3" y="32.3" width="7.3" height="7.3"/>
	<rect x="32.3" y="24.1" width="7.3" height="7.3"/>
	<rect x="24.2" y="32.3" width="7.3" height="7.3"/>
	<rect x="24.2" y="24.1" width="7.3" height="7.3"/>
	<rect y="32.3" width="7.3" height="7.3"/>
</g>
</svg>
