<svg width="14" height="15" viewBox="0 0 14 15" fill="none" xmlns="http://www.w3.org/2000/svg">
<g clip-path="url(#clip0)">
<path d="M9.73824 3.25049C9.49263 3.25049 9.29436 3.07271 9.29436 2.85247C9.29436 1.71679 8.26456 0.796038 7.00097 0.796038C5.73443 0.796038 4.70759 1.71944 4.70759 2.85247C4.70759 3.07271 4.50932 3.25049 4.26371 3.25049C4.0181 3.25049 3.81983 3.07271 3.81983 2.85247C3.81687 1.27897 5.24617 0 7.00097 0C8.75578 0 10.1821 1.27897 10.1821 2.85247C10.1821 3.07271 9.98385 3.25049 9.73824 3.25049Z" fill="#828282"/>
<path d="M13.1063 15H0.89367C0.639178 15 0.399482 14.9044 0.227849 14.7346C0.0591739 14.5648 -0.0236838 14.3393 0.00294902 14.1137L1.15408 4.28C1.20143 3.87137 1.58612 3.56091 2.0448 3.56091H11.9552C12.4139 3.56091 12.7956 3.86871 12.8459 4.28L13.997 14.1137C14.0237 14.3393 13.9408 14.5648 13.7721 14.7346C13.6005 14.9018 13.3608 15 13.1063 15ZM2.04776 4.35695C2.0448 4.35695 2.04184 4.3596 2.04184 4.36226L0.887751 14.196C0.887751 14.1986 0.887751 14.1986 0.890711 14.2013C0.890711 14.2013 0.89367 14.2039 0.896629 14.2039H13.1093C13.1122 14.2039 13.1122 14.2039 13.1152 14.2013C13.1181 14.1986 13.1181 14.1986 13.1181 14.196L11.967 4.36226C11.967 4.3596 11.9641 4.35695 11.9611 4.35695H2.04776Z" fill="#828282"/>
</g>
<defs>
<clipPath id="clip0">
<rect width="14" height="15" fill="white"/>
</clipPath>
</defs>
</svg>
