<svg xmlns="http://www.w3.org/2000/svg" width="42.311" height="56" viewBox="0 0 42.311 56">
  <g id="check" transform="translate(-597.356 -1002)">
    <rect id="Rectangle_48" data-name="Rectangle 48" width="41" height="9" transform="translate(598 1035)" fill="#ecebeb"/>
    <rect id="Rectangle_49" data-name="Rectangle 49" width="41" height="9" transform="translate(598 1015)" fill="#ecebeb"/>
    <path id="Path_4" data-name="Path 4" d="M37.156,957.362a5.558,5.558,0,0,0-5.231,3.733H26.578a.647.647,0,0,0-.622.622v1.867H16.622a.631.631,0,0,0-.622.622v48.533c0,.326.919.622,1.244.622H57.689a.647.647,0,0,0,.622-.622V964.206a.647.647,0,0,0-.622-.622H48.356v-1.867a.647.647,0,0,0-.622-.622H42.386A5.558,5.558,0,0,0,37.156,957.362Zm0,1.244a4.342,4.342,0,0,1,4.219,3.267.641.641,0,0,0,.6.467h5.133v4.978H27.2V962.34h5.133a.641.641,0,0,0,.6-.467A4.342,4.342,0,0,1,37.156,958.606Zm-19.911,6.222h8.711v3.111a.647.647,0,0,0,.622.622H47.733a.647.647,0,0,0,.622-.622v-3.111h8.711v47.289H17.244Zm7.467,8.089a1.867,1.867,0,1,0,1.867,1.867A1.867,1.867,0,0,0,24.711,972.917Zm8.089,1.245a.622.622,0,1,0,0,1.244H50.844a.622.622,0,1,0,0-1.244Zm-8.089,8.711a1.867,1.867,0,1,0,1.867,1.867A1.867,1.867,0,0,0,24.711,982.873Zm8.089,1.244a.622.622,0,0,0,0,1.245H50.844a.622.622,0,0,0,0-1.245Zm-8.089,8.711a1.867,1.867,0,1,0,1.867,1.867A1.867,1.867,0,0,0,24.711,992.829Zm8.089,1.245a.622.622,0,1,0,0,1.244H50.844a.622.622,0,1,0,0-1.244Zm-8.089,8.711a1.867,1.867,0,1,0,1.867,1.867A1.867,1.867,0,0,0,24.711,1002.784Zm8.089,1.245a.622.622,0,1,0,0,1.244H50.844a.622.622,0,1,0,0-1.244Z" transform="translate(581.356 44.638)" fill="#281f18"/>
  </g>
</svg>
