<svg xmlns="http://www.w3.org/2000/svg" width="45.405" height="40" viewBox="0 0 45.405 40">
  <g id="примерка" transform="translate(-211 -986)">
    <g id="noun_shoes_1733978" transform="translate(203 973)">
      <g id="Group_6" data-name="Group 6" transform="translate(8 13)">
        <rect id="Rectangle_69" data-name="Rectangle 69" width="33" height="3" transform="translate(1 15)" fill="#ecebeb"/>
        <rect id="Rectangle_70" data-name="Rectangle 70" width="33" height="3" transform="translate(11 36)" fill="#ecebeb"/>
        <path id="Path_23" data-name="Path 23" d="M26.767,965.362a2.39,2.39,0,0,0-2.5,1.824,8.628,8.628,0,0,0,.118,3.834,7.646,7.646,0,0,1-5.439.794,18.73,18.73,0,0,1-8.125-3.666.838.838,0,0,0-1.166.389,10.68,10.68,0,0,0-1.3,3.8,20.712,20.712,0,0,0,0,7.618V983.2a.562.562,0,0,0,.541.541H44.824a42.613,42.613,0,0,0,8.209-1.115.555.555,0,0,0,.372-.507,15.465,15.465,0,0,0-.3-3.666,3.973,3.973,0,0,0-1.453-2.314c-1.479-1.1-3.835-1.334-7.855-1.6a9.7,9.7,0,0,1-5.54-1.926l.405-.405a.559.559,0,0,0-.034-.76.5.5,0,0,0-.743,0l-.473.473c-.4-.364-.771-.738-1.132-1.115l.22-.22a.572.572,0,0,0-.051-.777.486.486,0,0,0-.726.017l-.186.186a9.493,9.493,0,0,0-1.486-1.216l.321-.405a.561.561,0,0,0-.1-.76.5.5,0,0,0-.743.084l-.422.524c-.509-.29-1.01-.576-1.5-.828a.594.594,0,0,0,0-.844c-.4-.259-.658.016-1.014.355a36.263,36.263,0,0,0-3.818-1.554Zm-.22,1.081c.292.1.643.238,1,.372L25.2,969.855a4.8,4.8,0,0,1,.1-2.314C25.569,966.773,26.01,966.465,26.547,966.443Zm2.044.794c.43.179.862.355,1.334.574l-.743.98a.583.583,0,0,0,.118.777.561.561,0,0,0,.76-.118l.861-1.149c.488.244,1,.493,1.5.777l-1.064,1.334a.541.541,0,1,0,.845.676l1.166-1.453A8.325,8.325,0,0,1,34.74,970.8l-1.182,1.182a.576.576,0,0,0,.017.777.554.554,0,0,0,.76-.017l1.166-1.165c.353.364.732.721,1.149,1.1l-.929.929a.576.576,0,0,0,.017.777.554.554,0,0,0,.76-.017l.98-.98a11.465,11.465,0,0,0,6.233,2.23c3.093.184,5.427.082,7.3,1.385a2.508,2.508,0,0,1,.878,1.166,22.137,22.137,0,0,1-4.51.811c-12.739.892-26.751.446-38.04.439a18.954,18.954,0,0,1-.169-4.9,16.618,16.618,0,0,0,7.534-2.112,15.617,15.617,0,0,0,2.061.473c2.679.429,5.037.042,6.554-1.182a.552.552,0,0,0,.2-.524l3.074-3.936ZM10.5,969.23a21.772,21.772,0,0,0,4.78,2.669,14.382,14.382,0,0,1-6,1.52A12.432,12.432,0,0,1,10.5,969.23Zm41.638,9.983a19.791,19.791,0,0,1,.152,2.449,56.124,56.124,0,0,1-7.466,1h-2.23v-2.28c1.815-.076,3.458-.178,4.882-.321A22.124,22.124,0,0,0,52.138,979.213Zm-10.625,1.2v2.246H9.436V980.5C20.467,980.386,31.2,980.763,41.513,980.412Zm-6.875,6.571a36.2,36.2,0,0,0-3.818,1.554c-.356-.339-.614-.613-1.014-.355a.594.594,0,0,0,0,.844c-.494.251-.995.537-1.5.828l-.422-.524a.5.5,0,0,0-.743-.085.561.561,0,0,0-.1.76l.321.406a9.492,9.492,0,0,0-1.486,1.216l-.186-.186a.486.486,0,0,0-.726-.017.572.572,0,0,0-.051.777l.22.22c-.36.377-.729.751-1.132,1.115l-.473-.473a.5.5,0,0,0-.743,0,.559.559,0,0,0-.034.76l.405.405a9.7,9.7,0,0,1-5.54,1.926c-4.019.271-6.375.5-7.855,1.6a3.974,3.974,0,0,0-1.453,2.314,15.465,15.465,0,0,0-.3,3.666.555.555,0,0,0,.372.507,42.6,42.6,0,0,0,8.209,1.115H52.51a.562.562,0,0,0,.541-.541v-3.243a20.712,20.712,0,0,0,0-7.618,10.679,10.679,0,0,0-1.3-3.8.839.839,0,0,0-1.166-.389,18.726,18.726,0,0,1-8.125,3.666,7.645,7.645,0,0,1-5.439-.794,8.628,8.628,0,0,0,.118-3.834,2.39,2.39,0,0,0-2.5-1.824Zm.22,1.081c.537.022.978.331,1.25,1.1a4.8,4.8,0,0,1,.1,2.314l-2.348-3.041C34.214,988.3,34.566,988.164,34.858,988.064Zm-2.044.794,3.074,3.936a.552.552,0,0,0,.2.524c1.517,1.224,3.875,1.611,6.554,1.182a15.617,15.617,0,0,0,2.061-.473,16.618,16.618,0,0,0,7.534,2.111,18.954,18.954,0,0,1-.169,4.9c-11.29.007-25.3.453-38.04-.439a22.139,22.139,0,0,1-4.51-.811,2.507,2.507,0,0,1,.878-1.166c1.87-1.3,4.2-1.2,7.3-1.385a11.464,11.464,0,0,0,6.233-2.23l.98.98a.544.544,0,1,0,.777-.76l-.929-.929c.416-.377.8-.734,1.149-1.1l1.166,1.165a.544.544,0,1,0,.777-.76l-1.182-1.182a8.325,8.325,0,0,1,1.368-1.166l1.166,1.453a.541.541,0,1,0,.845-.676L28.979,990.7c.5-.284,1.015-.533,1.5-.777l.861,1.149a.549.549,0,1,0,.878-.659l-.743-.98c.473-.219.9-.4,1.334-.574ZM50.9,990.851a12.433,12.433,0,0,1,1.216,4.189,14.38,14.38,0,0,1-6-1.52,21.772,21.772,0,0,0,4.78-2.669Zm-41.638,9.983a22.124,22.124,0,0,0,4.662.844c1.424.142,3.067.245,4.882.321v2.28h-2.23a56.124,56.124,0,0,1-7.466-1A19.791,19.791,0,0,1,9.267,1000.835Zm10.625,1.2c10.308.351,21.046-.026,32.077.084v2.162H19.892Z" transform="translate(-8 -965.362)" fill="#281f18"/>
      </g>
    </g>
  </g>
</svg>
