<svg width="14" height="16" viewBox="0 0 14 16" fill="none" xmlns="http://www.w3.org/2000/svg">
<g clip-path="url(#clip0)">
<path d="M7.01304 15.9999C6.7784 15.9999 6.51769 15.8988 6.3352 15.7219L2.05959 11.5765C0.729981 10.2874 0 8.59391 0 6.774C0 4.9541 0.729981 3.26058 2.05959 1.97148C4.79702 -0.68255 9.22905 -0.68255 11.9665 1.97148C13.2961 3.26058 14.0261 4.9541 14.0261 6.774C14.0261 8.59391 13.2961 10.2874 11.9665 11.5765L7.6648 15.7219C7.48231 15.8988 7.24767 15.9999 7.01304 15.9999ZM7.01304 0.88459C5.44879 0.88459 3.88454 1.46595 2.71136 2.60339C1.56425 3.71555 0.938547 5.20686 0.938547 6.774C0.938547 8.34114 1.56425 9.83246 2.71136 10.9446L6.98696 15.09C6.98696 15.09 7.01304 15.09 7.03911 15.09L11.3147 10.9446C12.4618 9.83246 13.0875 8.34114 13.0875 6.774C13.0875 5.20686 12.4618 3.71555 11.3147 2.60339C10.1155 1.46595 8.55121 0.88459 7.01304 0.88459Z" fill="#828282"/>
<path d="M7.0131 9.70629C6.15276 9.70629 5.34457 9.3777 4.74494 8.79634C4.14532 8.21498 3.8064 7.43141 3.8064 6.59729C3.8064 5.76316 4.14532 4.97959 4.74494 4.39823C5.99634 3.18496 8.02986 3.18496 9.25518 4.39823C10.4805 5.6115 10.5066 7.58307 9.25518 8.77106C8.65556 9.3777 7.84736 9.70629 7.0131 9.70629ZM7.0131 4.39823C6.43954 4.39823 5.83992 4.62572 5.39671 5.05542C4.51031 5.91482 4.51031 7.3303 5.39671 8.1897C5.83992 8.6194 6.41347 8.84689 7.0131 8.84689C7.61273 8.84689 8.18628 8.6194 8.62949 8.1897C9.51589 7.3303 9.51589 5.91482 8.62949 5.05542C8.16021 4.60045 7.58666 4.39823 7.0131 4.39823Z" fill="#828282"/>
</g>
<defs>
<clipPath id="clip0">
<rect width="14" height="16" fill="white"/>
</clipPath>
</defs>
</svg>
