<svg width="21" height="18" viewBox="0 0 21 18" fill="none" xmlns="http://www.w3.org/2000/svg">
<path d="M18.8192 1.67631C17.7451 0.60217 16.3291 0.0162749 14.8102 0.0162749C13.2966 0.0162749 11.8698 0.607595 10.8011 1.67631L10.2424 2.23508L9.67273 1.66546C8.59859 0.59132 7.17183 0 5.65826 0C4.15013 0.00542496 2.72336 0.59132 1.66007 1.66004C0.585932 2.73418 -0.00538796 4.15552 3.6999e-05 5.66908C3.6999e-05 7.18264 0.596782 8.60398 1.6655 9.67269L9.81921 17.8264C9.93313 17.9403 10.085 18 10.2315 18C10.378 18 10.5299 17.9458 10.6438 17.8318L18.8138 9.6944C19.8879 8.62025 20.4738 7.19892 20.4738 5.68535C20.4738 4.17179 19.8879 2.74503 18.8192 1.67631ZM17.9838 8.86438L10.2261 16.5895L2.49009 8.85353C1.63837 8.00181 1.17183 6.87342 1.17183 5.6745C1.17183 4.47016 1.63837 3.34177 2.48467 2.49548C3.33096 1.64919 4.45935 1.18264 5.65826 1.18264C6.8626 1.18264 7.991 1.64919 8.84271 2.5009L9.82463 3.48282C10.0525 3.71067 10.4214 3.71067 10.6546 3.48282L11.6257 2.51175C12.4774 1.65461 13.6112 1.18807 14.8102 1.18807C16.0091 1.18807 17.1375 1.65461 17.9892 2.5009C18.8409 3.35262 19.302 4.48101 19.302 5.67993C19.302 6.88427 18.8355 8.01266 17.9838 8.86438Z" fill="#999999"/>
</svg>
