<?xml version="1.0" encoding="utf-8"?>
<svg width="22" height="22" viewBox="0 0 22 22" fill="none" xmlns="http://www.w3.org/2000/svg">
<path d="M15.9305 0H6.06953C2.71746 0 0 2.71746 0 6.06953V15.9305C0 19.2825 2.71746 22 6.06953 22H15.9305C19.2825 22 22 19.2825 22 15.9305V6.06953C22 2.71746 19.2825 0 15.9305 0ZM20.0473 15.9305C20.0473 18.2086 18.1923 20.0473 15.9305 20.0473H6.06953C3.79142 20.0473 1.95266 18.1923 1.95266 15.9305V6.06953C1.95266 3.80769 3.80769 1.95266 6.06953 1.95266H15.9305C18.2086 1.95266 20.0473 3.80769 20.0473 6.06953V15.9305Z" fill="#191818"/>
<path d="M10.9999 5.3374C7.87566 5.3374 5.32092 7.87586 5.32092 11.0001C5.32092 14.1244 7.85938 16.6791 10.9999 16.6791C14.1242 16.6791 16.6789 14.1407 16.6789 11.0001C16.6789 7.87586 14.1242 5.3374 10.9999 5.3374ZM10.9999 14.7265C8.94962 14.7265 7.27359 13.0667 7.27359 11.0164C7.28986 8.94983 8.94962 7.29007 10.9999 7.29007C13.0502 7.29007 14.7262 8.94983 14.7262 11.0001C14.7262 13.0504 13.0502 14.7265 10.9999 14.7265Z" fill="#191818"/>
<path d="M16.9068 3.67725C16.5325 3.67725 16.1583 3.8237 15.8979 4.10032C15.6376 4.36068 15.4749 4.73494 15.4749 5.1092C15.4749 5.48346 15.6213 5.85772 15.8979 6.11807C16.1583 6.37843 16.5325 6.54115 16.9068 6.54115C17.2811 6.54115 17.6553 6.3947 17.9157 6.11807C18.176 5.85772 18.3388 5.48346 18.3388 5.1092C18.3388 4.73494 18.1923 4.36068 17.9157 4.10032C17.6553 3.8237 17.2973 3.67725 16.9068 3.67725Z" fill="#191818"/>
</svg>
