<svg width="14" height="15" viewBox="0 0 14 15" fill="none" xmlns="http://www.w3.org/2000/svg">
<path d="M13.5455 15C13.2939 15 13.0909 14.7941 13.0909 14.539C13.0909 11.1332 10.3576 8.36067 7 8.36067C3.64242 8.36067 0.909091 11.1332 0.909091 14.539C0.909091 14.7941 0.706061 15 0.454545 15C0.20303 15 0 14.7941 0 14.539C0 10.623 3.13939 7.43854 7 7.43854C10.8606 7.43854 14 10.623 14 14.539C14 14.7941 13.797 15 13.5455 15Z" fill="#828282"/>
<path d="M6.99981 6.70082C5.1786 6.70082 3.69678 5.19775 3.69678 3.35041C3.69678 1.50307 5.1786 0 6.99981 0C8.82102 0 10.3028 1.50307 10.3028 3.35041C10.3028 5.19775 8.82102 6.70082 6.99981 6.70082ZM6.99981 0.922131C5.6786 0.922131 4.60587 2.01025 4.60587 3.35041C4.60587 4.69057 5.6786 5.77869 6.99981 5.77869C8.32102 5.77869 9.39375 4.69057 9.39375 3.35041C9.39375 2.01025 8.32102 0.922131 6.99981 0.922131Z" fill="#828282"/>
</svg>
