<svg xmlns="http://www.w3.org/2000/svg" width="40.4" height="40.4" viewBox="0 0 40.4 40.4">
  <g id="подарок" transform="translate(-1340.852 -985.8)">
    <g id="Group_5" data-name="Group 5" transform="translate(-3993.023 -270.149)">
      <g id="noun_Gift_69639" transform="translate(5334.075 1256.149)">
        <path id="Path_7" data-name="Path 7" d="M39.833,63.333h-35A.834.834,0,0,1,4,62.5V40.833A.834.834,0,0,1,4.833,40h35a.835.835,0,0,1,.833.833V62.5A.835.835,0,0,1,39.833,63.333ZM5.667,61.667H39v-20H5.667Z" transform="translate(-2.333 -23.333)" fill="#281f18" stroke="#fff" stroke-width="0.4"/>
        <path id="Path_8" data-name="Path 8" d="M39.167,32.333H.833A.834.834,0,0,1,0,31.5V24.833A.834.834,0,0,1,.833,24H39.167a.835.835,0,0,1,.833.833V31.5A.835.835,0,0,1,39.167,32.333Zm-37.5-1.667H38.333v-5H1.667Z" transform="translate(0 -14)" fill="#281f18" stroke="#fff" stroke-width="0.4"/>
        <path id="Path_9" data-name="Path 9" d="M40,44h1.667V64H40Z" transform="translate(-23.333 -25.667)" fill="#281f18" stroke="#fff" stroke-width="0.4"/>
        <path id="Path_10" data-name="Path 10" d="M52,44h1.667V64H52Z" transform="translate(-30.333 -25.667)" fill="#281f18" stroke="#fff" stroke-width="0.4"/>
        <path id="Path_11" data-name="Path 11" d="M40,28h1.667v5H40Z" transform="translate(-23.333 -16.333)" fill="#281f18" stroke="#fff" stroke-width="0.4"/>
        <path id="Path_12" data-name="Path 12" d="M52,28h1.667v5H52Z" transform="translate(-30.333 -16.333)" fill="#281f18" stroke="#fff" stroke-width="0.4"/>
        <path id="Path_13" data-name="Path 13" d="M32.931,11.667a.834.834,0,0,1-.833-.833c0-8.273-3.788-9.167-5.417-9.167-2.523,0-2.847,1.322-2.847,2.473,0,2.372,3.752,5.86,4.93,5.86a.833.833,0,0,1,0,1.667c-2.07,0-6.6-4.293-6.6-7.527,0-2.632,1.645-4.14,4.513-4.14,1.662,0,7.083.782,7.083,10.833A.834.834,0,0,1,32.931,11.667Z" transform="translate(-12.931 0)" fill="#281f18" stroke="#fff" stroke-width="0.4"/>
        <path id="Path_14" data-name="Path 14" d="M51,11.667A.833.833,0,0,1,51,10c1.18,0,4.93-3.488,4.93-5.86,0-1.152-.323-2.473-2.847-2.473-1.628,0-5.417.893-5.417,9.167a.833.833,0,1,1-1.667,0C46,.782,51.422,0,53.083,0,55.952,0,57.6,1.508,57.6,4.14,57.6,7.373,53.07,11.667,51,11.667Z" transform="translate(-26.833 0)" fill="#281f18" stroke="#fff" stroke-width="0.4"/>
      </g>
      <rect id="Rectangle_65" data-name="Rectangle 65" width="3.391" height="6.718" transform="translate(5352.417 1266.089)" fill="#ecebeb"/>
      <rect id="Rectangle_66" data-name="Rectangle 66" width="3.391" height="19.884" transform="translate(5352.417 1274.434)" fill="#ecebeb"/>
    </g>
  </g>
</svg>
