<svg xmlns="http://www.w3.org/2000/svg" width="44.473" height="40" viewBox="0 0 44.473 40">
  <g id="возврат" transform="translate(-987.062 -986)">
    <g id="Group_4" data-name="Group 4" transform="translate(-4613.888 -391)">
      <g id="noun_Delivery_return_1307677" data-name="noun_Delivery return_1307677" transform="translate(5600.95 1377)">
        <path id="Path_15" data-name="Path 15" d="M54.875,62.256H11.57a.538.538,0,0,1-.57-.57V32.57a.538.538,0,0,1,.57-.57h43.3a.538.538,0,0,1,.57.57V61.63A.586.586,0,0,1,54.875,62.256ZM12.14,61.117H54.3V33.14H12.14Z" transform="translate(-10.972 -22.256)" fill="#281f18"/>
        <path id="Path_16" data-name="Path 16" d="M54.853,25.783h-43.3a.6.6,0,0,1-.513-.285.518.518,0,0,1,0-.57l5.755-9.744A.6.6,0,0,1,17.3,14.9H49.041a.6.6,0,0,1,.513.285l5.755,9.744a.518.518,0,0,1,0,.57C55.252,25.726,55.081,25.783,54.853,25.783Zm-42.279-1.14H53.885l-5.128-8.6H17.645Z" transform="translate(-10.95 -14.9)" fill="#281f18"/>
        <path id="Path_17" data-name="Path 17" d="M54.093,23.64H17.17a.57.57,0,1,1,0-1.14H54.036a.538.538,0,0,1,.57.57A.526.526,0,0,1,54.093,23.64Z" transform="translate(-13.381 -18.17)" fill="#281f18"/>
        <path id="Path_18" data-name="Path 18" d="M40.846,54.115a.517.517,0,0,1-.4-.171l-3.476-3.476a.564.564,0,0,1,.8-.8l3.476,3.476a.551.551,0,0,1,0,.8A.517.517,0,0,1,40.846,54.115Z" transform="translate(-22.071 -29.785)" fill="#281f18"/>
        <path id="Path_19" data-name="Path 19" d="M37.37,48.015a.517.517,0,0,1-.4-.171.551.551,0,0,1,0-.8l3.476-3.476a.564.564,0,0,1,.8.8l-3.476,3.476A.517.517,0,0,1,37.37,48.015Z" transform="translate(-22.071 -27.161)" fill="#281f18"/>
        <path id="Path_20" data-name="Path 20" d="M45.974,61.138H40.789a.57.57,0,0,1,0-1.14h5.185a4.729,4.729,0,0,0,0-9.459h-8.6a.57.57,0,1,1,0-1.14h8.6a5.869,5.869,0,1,1,0,11.738Z" transform="translate(-22.071 -29.742)" fill="#281f18"/>
      </g>
      <path id="Path_21" data-name="Path 21" d="M5603.821,1391.013l2.654-4.4h36.043l2.584,4.4Z" transform="translate(-1.235 -4.135)" fill="#ecebeb"/>
      <path id="Path_22" data-name="Path 22" d="M5609.455,1382.176l1.9-3.224h31.082l1.943,3.224Z" transform="translate(-3.659 -0.84)" fill="#ecebeb"/>
    </g>
  </g>
</svg>
