<svg width="19" height="20" viewBox="0 0 19 20" fill="#999999" xmlns="http://www.w3.org/2000/svg">
<path d="M15.2673 12.8438C14.1152 12.8438 13.0929 13.3939 12.4338 14.2398L6.94344 11.1728C7.07317 10.8044 7.14063 10.4048 7.14063 9.99481C7.14063 9.57966 7.06798 9.18526 6.93825 8.81162L12.4286 5.74987C13.0825 6.60093 14.11 7.15101 15.2621 7.15101C17.2289 7.15101 18.8376 5.54748 18.8376 3.57551C18.8376 1.60353 17.2392 0 15.2673 0C13.2953 0 11.6917 1.60353 11.6917 3.57551C11.6917 3.99066 11.7644 4.39024 11.8941 4.75869L6.40893 7.82045C5.75506 6.96419 4.72756 6.4193 3.57551 6.4193C1.60872 6.4193 0 8.02283 0 9.99481C0 11.9668 1.60872 13.5703 3.5807 13.5703C4.73274 13.5703 5.76544 13.0202 6.4193 12.164L11.9097 15.2309C11.7748 15.6046 11.7021 16.0093 11.7021 16.4245C11.7021 18.3913 13.3057 20 15.2776 20C17.2496 20 18.8531 18.3965 18.8531 16.4245C18.8531 14.4525 17.2392 12.8438 15.2673 12.8438ZM15.2673 1.1261C16.6217 1.1261 17.7218 2.22626 17.7218 3.5807C17.7218 4.93513 16.6217 6.03529 15.2673 6.03529C13.918 6.0301 12.8179 4.92994 12.8179 3.5807C12.8179 2.22626 13.918 1.1261 15.2673 1.1261ZM3.5807 12.4442C2.22626 12.4442 1.1261 11.3441 1.1261 9.98962C1.1261 8.63518 2.22626 7.53503 3.5807 7.53503C4.93513 7.53503 6.03529 8.63518 6.03529 9.98962C6.0301 11.3441 4.92994 12.4442 3.5807 12.4442ZM15.2673 18.8687C13.9128 18.8687 12.8127 17.7686 12.8127 16.4141C12.8127 15.0597 13.9128 13.9595 15.2673 13.9595C16.6217 13.9595 17.7218 15.0597 17.7218 16.4141C17.7218 17.7686 16.6217 18.8687 15.2673 18.8687Z" fill="#999999"/>
</svg>
