<svg width="15" height="15" viewBox="0 0 15 15" fill="none" xmlns="http://www.w3.org/2000/svg">
<path d="M14.8523 14.1466L10.2141 9.4913C11.0483 8.48728 11.5489 7.19545 11.5489 5.78983C11.5489 2.59705 8.95946 0 5.7761 0C2.5894 0 0 2.59705 0 5.78983C0 8.9826 2.5894 11.5797 5.77276 11.5797C7.19426 11.5797 8.49897 11.0609 9.5067 10.2008L14.1449 14.8527C14.2417 14.9498 14.3718 15 14.4986 15C14.6254 15 14.7556 14.9498 14.8523 14.8527C15.0492 14.6586 15.0492 14.3407 14.8523 14.1466ZM1.00106 5.78983C1.00106 3.15261 3.14332 1.00402 5.77276 1.00402C8.40554 1.00402 10.5445 3.15261 10.5445 5.78983C10.5445 7.09839 10.0172 8.28313 9.16968 9.14993C9.16968 9.14993 9.16634 9.14993 9.16634 9.15328L9.16301 9.15663C8.29876 10.0335 7.09749 10.5756 5.77276 10.5756C3.14332 10.579 1.00106 8.43039 1.00106 5.78983Z" fill="#828282"/>
</svg>
