<svg width="22" height="13" viewBox="0 0 22 13" fill="none" xmlns="http://www.w3.org/2000/svg">
<path d="M21.8814 11.7111C21.8463 11.6567 21.8287 11.6022 21.8111 11.5659C21.4245 10.8579 20.7039 9.98656 19.6318 8.95182L19.6142 8.93367L19.5966 8.91551L19.5791 8.89736H19.5615C19.0694 8.40722 18.7706 8.09862 18.63 7.93524C18.4015 7.62663 18.3312 7.29987 18.4718 6.97311C18.5597 6.73712 18.9112 6.21068 19.5088 5.43009C19.8251 5.01256 20.0712 4.6858 20.2469 4.43166C21.5651 2.61633 22.1451 1.45452 21.9693 0.946229L21.899 0.837309C21.8463 0.764696 21.7408 0.692083 21.5475 0.637623C21.3542 0.583163 21.1081 0.56501 20.8093 0.601317L17.5227 0.61947C17.47 0.601317 17.3997 0.601317 17.2942 0.61947C17.1888 0.637623 17.1361 0.655776 17.1361 0.655776L17.0833 0.692083L17.0306 0.72839C16.9955 0.746543 16.9427 0.801003 16.9076 0.855462C16.8549 0.909922 16.8197 0.982535 16.8021 1.05515C16.4506 2.01727 16.0288 2.88863 15.5719 3.72368C15.2906 4.21382 15.027 4.63134 14.7985 4.99441C14.5701 5.35747 14.3591 5.61162 14.201 5.79315C14.0428 5.95653 13.9022 6.10176 13.7616 6.19252C13.6386 6.30144 13.5331 6.33775 13.4628 6.3196C13.3925 6.30144 13.3222 6.28329 13.2695 6.26514C13.164 6.19252 13.0761 6.10176 13.0058 5.97468C12.9355 5.84761 12.9004 5.70239 12.8652 5.52085C12.8477 5.33932 12.8301 5.17594 12.8301 5.04887C12.8301 4.92179 12.8301 4.72211 12.8301 4.48612C12.8301 4.25012 12.8477 4.06859 12.8477 3.99598C12.8477 3.68737 12.8477 3.37877 12.8652 3.0157C12.8828 2.67079 12.8828 2.38034 12.9004 2.18065C12.9004 1.98097 12.918 1.76313 12.918 1.52713C12.918 1.29114 12.9004 1.12776 12.8828 0.982535C12.8652 0.855462 12.8125 0.72839 12.7598 0.601317C12.7071 0.474244 12.6192 0.383477 12.5313 0.310864C12.4258 0.238251 12.3028 0.183791 12.1446 0.147485C11.7404 0.0567186 11.2307 0.00225876 10.598 0.00225876C9.15681 -0.0158945 8.26046 0.0748718 7.83865 0.292711C7.68047 0.383477 7.53987 0.492397 7.39927 0.655776C7.25866 0.837309 7.24109 0.928075 7.34654 0.946229C7.8035 1.01884 8.13743 1.18222 8.31319 1.45452L8.38349 1.59975C8.43622 1.70867 8.48894 1.8902 8.54167 2.14434C8.5944 2.39849 8.62955 2.68894 8.64712 3.0157C8.68227 3.59661 8.68227 4.08674 8.64712 4.48612C8.61197 4.90364 8.57682 5.21225 8.54167 5.44824C8.50652 5.68423 8.45379 5.86576 8.38349 6.01099C8.31319 6.15622 8.26046 6.24698 8.24289 6.26514C8.22531 6.30144 8.20774 6.3196 8.19016 6.3196C8.08471 6.3559 7.97926 6.37406 7.8738 6.37406C7.76835 6.37406 7.64532 6.3196 7.48714 6.21068C7.32896 6.10176 7.17079 5.95653 7.01261 5.75685C6.85443 5.55716 6.6611 5.30301 6.45019 4.93995C6.23929 4.59504 6.02838 4.17751 5.81748 3.70553L5.64172 3.36061C5.51869 3.14277 5.37809 2.81602 5.16718 2.39849C4.97385 1.98097 4.7981 1.56344 4.63992 1.18222C4.58719 1.01884 4.48174 0.891769 4.35871 0.801003L4.30599 0.764696C4.27084 0.72839 4.20053 0.692083 4.13023 0.655776C4.04235 0.61947 3.95448 0.601317 3.8666 0.583163L0.738169 0.601317C0.421811 0.601317 0.19333 0.67393 0.0878773 0.819156L0.0351509 0.891769C0.0175755 0.928075 0 1.00069 0 1.0733C0 1.16407 0.0175755 1.27299 0.0703018 1.40006C0.527264 2.50741 1.01938 3.57845 1.56422 4.61319C2.10905 5.64793 2.56602 6.48298 2.97025 7.11834C3.37449 7.75371 3.77872 8.35276 4.18296 8.89736C4.58719 9.46011 4.8684 9.82318 5.009 9.9684C5.14961 10.1318 5.25506 10.2407 5.32536 10.3315L5.60657 10.6219C5.78232 10.8035 6.06353 11.0394 6.41504 11.2936C6.76655 11.5659 7.17079 11.82 7.5926 12.0742C8.03198 12.3283 8.5241 12.5462 9.10408 12.7095C9.68408 12.8729 10.2289 12.9455 10.7738 12.9092H12.0919C12.3555 12.8911 12.5665 12.8003 12.7071 12.6551L12.7598 12.6006C12.7949 12.5462 12.8125 12.4736 12.8477 12.3828C12.8828 12.292 12.8828 12.1831 12.8828 12.056C12.8828 11.7111 12.9004 11.4025 12.9531 11.1302C13.0058 10.8579 13.0761 10.6582 13.1464 10.513C13.2167 10.3678 13.3046 10.2589 13.3925 10.1681C13.4804 10.0773 13.5507 10.0229 13.5858 10.0047C13.621 9.98656 13.6561 9.9684 13.6737 9.9684C13.8495 9.91394 14.0779 9.9684 14.324 10.1499C14.5701 10.3315 14.7985 10.5675 15.027 10.8398C15.2379 11.1121 15.5016 11.4207 15.8179 11.7656C16.1167 12.1105 16.3979 12.3646 16.6264 12.528L16.8549 12.6732C17.013 12.764 17.2064 12.8548 17.4524 12.9274C17.6985 13 17.9094 13.0182 18.0851 12.9818L21.0202 12.9274C21.3015 12.9274 21.5299 12.8729 21.6881 12.7822C21.8463 12.6914 21.9517 12.5825 21.9693 12.4554C22.0045 12.3283 22.0045 12.2013 21.9693 12.056C21.9342 11.8745 21.9166 11.7656 21.8814 11.7111Z" fill="#191818"/>
</svg>
